<svg width="386" height="249" viewBox="0 0 386 249" fill="none" xmlns="http://www.w3.org/2000/svg">
<g filter="url(#filter0_d_52_22)">
<path d="M21.3555 218.35V94.8503L226.688 63.1447L182.372 189.959L21.3555 218.35Z" fill="white"/>
<mask id="path-2-outside-1_52_22" maskUnits="userSpaceOnUse" x="1.16711" y="-2.63902" width="383.09" height="244.549" fill="black">
<rect fill="white" x="1.16711" y="-2.63902" width="383.09" height="244.549"/>
<path d="M50.884 73.4534C56.7124 72.4257 62.1172 72.9178 67.0984 74.9298C72.0796 76.9418 76.0273 80.1855 78.9415 84.6609C81.8896 89.0959 83.3636 94.2554 83.3636 100.139C83.3636 106.058 81.9065 111.768 78.9923 117.271C76.0782 122.774 72.1305 127.445 67.1492 131.282C62.168 135.085 56.7463 137.504 50.884 138.537C46.2417 139.356 42.1076 139.259 38.4818 138.247V155.485C38.4818 156.174 38.2954 156.74 37.9227 157.184C37.5499 157.628 37.0247 157.91 36.347 158.03L20.7934 160.772C20.1157 160.892 19.5904 160.795 19.2177 160.482C18.8449 160.169 18.6586 159.669 18.6586 158.981V82.284C18.6586 80.8732 19.3702 80.0424 20.7934 79.7914L32.1282 77.7928C33.2464 77.5956 34.0766 77.9654 34.6188 78.902L36.4486 80.1794C40.4811 76.6812 45.2929 74.4392 50.884 73.4534ZM50.5282 119.348C53.0019 118.912 55.2214 117.97 57.1868 116.523C59.1861 115.069 60.7448 113.246 61.863 111.053C62.9813 108.86 63.5404 106.473 63.5404 103.893C63.5404 101.346 62.9643 99.1426 61.8122 97.2813C60.6601 95.4199 59.0844 94.0977 57.0851 93.3148C55.0859 92.4974 52.8494 92.3068 50.3757 92.743C47.936 93.1732 45.7164 94.1495 43.7172 95.6719C41.7179 97.1943 40.1422 99.0894 38.9901 101.357C37.838 103.59 37.2619 105.98 37.2619 108.526C37.2619 111.073 37.838 113.259 38.9901 115.086C40.1761 116.873 41.7687 118.14 43.768 118.889C45.8011 119.631 48.0546 119.785 50.5282 119.348ZM129.777 62.123C130.049 61.5246 130.387 61.0692 130.794 60.7566C131.201 60.4441 131.692 60.237 132.268 60.1354L143.603 58.1368C145.026 57.8858 145.738 58.4657 145.738 59.8765V118.251C145.738 118.939 145.551 119.505 145.179 119.949C144.806 120.393 144.281 120.675 143.603 120.795L131.811 122.874C130.692 123.071 129.862 122.684 129.32 121.713L127.744 120.959C123.712 124.354 118.968 126.532 113.512 127.494C107.65 128.528 102.228 128.022 97.2471 125.975C92.2658 123.894 88.3181 120.616 85.404 116.141C82.4898 111.665 81.0327 106.469 81.0327 100.55C81.0327 94.6664 82.4898 88.9901 85.404 83.5214C88.352 78.0123 92.3167 73.3735 97.2979 69.6048C102.279 65.8362 107.684 63.438 113.512 62.4103C119.103 61.4244 123.915 61.9695 127.948 64.0456L129.777 62.123ZM113.868 108.18C116.342 107.744 118.578 106.799 120.577 105.345C122.611 103.886 124.203 102.056 125.355 99.8575C126.541 97.6183 127.134 95.2256 127.134 92.6793C127.134 90.1331 126.558 87.9465 125.406 86.1196C124.254 84.2582 122.678 82.9188 120.679 82.1014C118.68 81.2841 116.46 81.0905 114.021 81.5207C111.547 81.9569 109.31 82.9362 107.311 84.4586C105.312 85.9466 103.736 87.8244 102.584 90.0921C101.432 92.3598 100.856 94.7667 100.856 97.3129C100.856 99.8936 101.415 102.083 102.533 103.882C103.651 105.68 105.193 106.957 107.159 107.711C109.158 108.46 111.394 108.616 113.868 108.18ZM183.756 50.0245C189.584 48.9968 194.989 49.489 199.97 51.501C204.951 53.513 208.899 56.7567 211.813 61.2321C214.761 65.6671 216.235 70.8265 216.235 76.7104C216.235 82.6287 214.778 88.3394 211.864 93.8425C208.95 99.3456 205.002 104.016 200.021 107.853C195.04 111.656 189.618 114.075 183.756 115.108C179.113 115.927 174.979 115.83 171.353 114.818V132.057C171.353 132.745 171.167 133.311 170.794 133.755C170.421 134.199 169.896 134.481 169.218 134.601L153.665 137.343C152.987 137.463 152.462 137.366 152.089 137.053C151.716 136.741 151.53 136.24 151.53 135.552V58.8551C151.53 57.4444 152.242 56.6135 153.665 56.3626L165 54.364C166.118 54.1668 166.948 54.5365 167.49 55.4732L169.32 56.7505C173.353 53.2524 178.164 51.0104 183.756 50.0245ZM183.4 95.9195C185.873 95.4834 188.093 94.5415 190.058 93.0938C192.058 91.6402 193.616 89.817 194.735 87.6241C195.853 85.4313 196.412 83.0445 196.412 80.4638C196.412 77.9176 195.836 75.7138 194.684 73.8524C193.532 71.9911 191.956 70.6689 189.957 69.886C187.957 69.0686 185.721 68.878 183.247 69.3142C180.807 69.7444 178.588 70.7207 176.589 72.2431C174.589 73.7655 173.014 75.6606 171.862 77.9282C170.709 80.1615 170.133 82.5512 170.133 85.0975C170.133 87.6437 170.709 89.8303 171.862 91.6572C173.048 93.4438 174.64 94.7114 176.639 95.4599C178.673 96.2025 180.926 96.3557 183.4 95.9195ZM353.195 20.1478C357.397 19.4069 361.548 19.9137 365.648 21.6682C366.393 22.0872 366.766 22.6065 366.766 23.2258C366.766 23.6387 366.647 24.0553 366.41 24.4756L359.498 38.8558C359.091 39.7189 358.549 40.2102 357.871 40.3297C357.498 40.3955 357.092 40.3467 356.651 40.1835C354.415 39.3048 352.28 39.0446 350.247 39.4031C348.281 39.7497 346.401 40.6318 344.605 42.0496C342.843 43.4614 341.402 45.3841 340.284 47.8179C339.166 50.2172 338.607 53.034 338.607 56.2685V84.2426C338.607 84.9308 338.421 85.497 338.048 85.9412C337.675 86.3855 337.15 86.6673 336.472 86.7868L320.918 89.5293C320.241 89.6488 319.716 89.5522 319.343 89.2394C318.97 88.9267 318.784 88.4262 318.784 87.738V29.3638C318.784 27.9531 319.495 27.1222 320.918 26.8713L332.762 24.783C333.88 24.5858 334.71 24.9556 335.252 25.8922L338.302 30.1029C339.928 27.4419 341.995 25.271 344.503 23.5901C347.044 21.8688 349.942 20.7214 353.195 20.1478ZM38.2785 214.199C38.2785 215.644 37.5838 216.489 36.1945 216.734L20.7934 219.449C20.1157 219.569 19.5904 219.472 19.2177 219.16C18.8449 218.847 18.6586 218.346 18.6586 217.658V141.323C18.6586 140.635 18.8449 140.068 19.2177 139.624C19.5904 139.18 20.1157 138.898 20.7934 138.779L36.1945 136.063C37.5838 135.818 38.2785 136.418 38.2785 137.863V214.199ZM72.9263 211.857C66.8946 212.921 61.3543 212.452 56.3053 210.452C51.2902 208.412 47.3255 205.171 44.4113 200.73C41.4972 196.289 40.0401 191.11 40.0401 185.191C40.0401 179.17 41.4972 173.407 44.4113 167.904C47.3594 162.361 51.3579 157.682 56.4069 153.867C61.4559 150.052 67.0132 147.609 73.0788 146.54C79.1782 145.464 84.7525 145.944 89.8014 147.978C94.8843 150.007 98.8998 153.273 101.848 157.777C104.796 162.246 106.27 167.492 106.27 173.513C106.27 179.431 104.779 185.131 101.797 190.612C98.849 196.086 94.8166 200.737 89.6998 204.564C84.6169 208.351 79.0257 210.782 72.9263 211.857ZM73.1296 192.621C75.6033 192.185 77.8567 191.203 79.8898 189.674C81.923 188.146 83.5156 186.265 84.6677 184.032C85.8537 181.758 86.4467 179.366 86.4467 176.854C86.4467 174.307 85.8537 172.124 84.6677 170.303C83.5156 168.441 81.923 167.105 79.8898 166.294C77.8567 165.482 75.6033 165.295 73.1296 165.731C70.6559 166.167 68.4025 167.149 66.3694 168.678C64.3701 170.2 62.7775 172.098 61.5915 174.372C60.4393 176.605 59.8633 178.995 59.8633 181.541C59.8633 184.053 60.4393 186.239 61.5915 188.101C62.7775 189.922 64.3701 191.241 66.3694 192.058C68.4025 192.87 70.6559 193.057 73.1296 192.621ZM136.823 200.59C130.791 201.654 125.251 201.186 120.202 199.186C115.187 197.145 111.222 193.904 108.308 189.463C105.394 185.022 103.937 179.843 103.937 173.925C103.937 167.903 105.394 162.141 108.308 156.638C111.256 151.094 115.255 146.415 120.304 142.6C125.353 138.785 130.91 136.343 136.976 135.273C143.075 134.198 148.649 134.677 153.698 136.712C158.781 138.74 162.797 142.006 165.745 146.51C168.693 150.979 170.167 156.225 170.167 162.246C170.167 168.165 168.676 173.864 165.694 179.345C162.746 184.819 158.713 189.47 153.597 193.297C148.514 197.084 142.923 199.515 136.823 200.59ZM137.026 181.354C139.5 180.918 141.753 179.936 143.787 178.408C145.82 176.879 147.412 174.998 148.565 172.765C149.751 170.492 150.344 168.099 150.344 165.587C150.344 163.041 149.751 160.857 148.565 159.036C147.412 157.175 145.82 155.838 143.787 155.027C141.753 154.216 139.5 154.028 137.026 154.464C134.553 154.9 132.299 155.883 130.266 157.411C128.267 158.933 126.674 160.831 125.488 163.105C124.336 165.338 123.76 167.728 123.76 170.274C123.76 172.786 124.336 174.973 125.488 176.834C126.674 178.655 128.267 179.974 130.266 180.792C132.299 181.603 134.553 181.791 137.026 181.354ZM246.364 115.366C251.04 114.541 255.09 114.928 258.512 116.527C261.969 118.119 264.629 120.954 266.492 125.029C268.39 129.065 269.339 134.265 269.339 140.631V173.456C269.339 174.902 268.627 175.75 267.204 176.001L251.65 178.743C250.973 178.863 250.447 178.766 250.075 178.453C249.702 178.141 249.516 177.64 249.516 176.952V144.745C249.516 141.305 248.77 138.752 247.279 137.088C245.788 135.424 243.602 134.846 240.722 135.354C238.825 135.689 237.147 136.449 235.69 137.635C234.233 138.821 233.064 140.266 232.183 141.969C231.302 143.639 230.76 145.369 230.556 147.159V180.295C230.556 180.983 230.37 181.549 229.997 181.993C229.625 182.438 229.099 182.72 228.422 182.839L212.868 185.582C211.445 185.833 210.733 185.235 210.733 183.79V151.584C210.733 148.143 209.988 145.591 208.497 143.927C207.006 142.263 204.82 141.684 201.94 142.192C199.907 142.551 198.111 143.418 196.552 144.794C194.993 146.17 193.79 147.827 192.943 149.766C192.096 151.67 191.672 153.603 191.672 155.564V187.151C191.672 187.839 191.486 188.406 191.113 188.85C190.74 189.294 190.215 189.576 189.538 189.695L173.984 192.438C173.306 192.557 172.781 192.461 172.408 192.148C172.035 191.835 171.849 191.335 171.849 190.647V132.272C171.849 130.862 172.561 130.031 173.984 129.78L185.827 127.692C186.437 127.584 186.928 127.618 187.301 127.793C187.708 127.962 188.047 128.298 188.318 128.801L189.944 130.837C195.129 126.241 200.991 123.366 207.531 122.213C211.36 121.538 214.783 121.657 217.798 122.57C220.848 123.478 223.406 125.194 225.473 127.72C231.166 120.936 238.13 116.818 246.364 115.366ZM307.877 166.661C307.877 168.106 307.165 168.954 305.742 169.205L288.612 172.226C287.189 172.477 286.478 171.88 286.478 170.434V155.105C286.478 153.66 287.189 152.812 288.612 152.561L305.742 149.541C307.165 149.29 307.877 149.887 307.877 151.332V166.661Z"/>
</mask>
<path d="M50.884 73.4534C56.7124 72.4257 62.1172 72.9178 67.0984 74.9298C72.0796 76.9418 76.0273 80.1855 78.9415 84.6609C81.8896 89.0959 83.3636 94.2554 83.3636 100.139C83.3636 106.058 81.9065 111.768 78.9923 117.271C76.0782 122.774 72.1305 127.445 67.1492 131.282C62.168 135.085 56.7463 137.504 50.884 138.537C46.2417 139.356 42.1076 139.259 38.4818 138.247V155.485C38.4818 156.174 38.2954 156.74 37.9227 157.184C37.5499 157.628 37.0247 157.91 36.347 158.03L20.7934 160.772C20.1157 160.892 19.5904 160.795 19.2177 160.482C18.8449 160.169 18.6586 159.669 18.6586 158.981V82.284C18.6586 80.8732 19.3702 80.0424 20.7934 79.7914L32.1282 77.7928C33.2464 77.5956 34.0766 77.9654 34.6188 78.902L36.4486 80.1794C40.4811 76.6812 45.2929 74.4392 50.884 73.4534ZM50.5282 119.348C53.0019 118.912 55.2214 117.97 57.1868 116.523C59.1861 115.069 60.7448 113.246 61.863 111.053C62.9813 108.86 63.5404 106.473 63.5404 103.893C63.5404 101.346 62.9643 99.1426 61.8122 97.2813C60.6601 95.4199 59.0844 94.0977 57.0851 93.3148C55.0859 92.4974 52.8494 92.3068 50.3757 92.743C47.936 93.1732 45.7164 94.1495 43.7172 95.6719C41.7179 97.1943 40.1422 99.0894 38.9901 101.357C37.838 103.59 37.2619 105.98 37.2619 108.526C37.2619 111.073 37.838 113.259 38.9901 115.086C40.1761 116.873 41.7687 118.14 43.768 118.889C45.8011 119.631 48.0546 119.785 50.5282 119.348ZM129.777 62.123C130.049 61.5246 130.387 61.0692 130.794 60.7566C131.201 60.4441 131.692 60.237 132.268 60.1354L143.603 58.1368C145.026 57.8858 145.738 58.4657 145.738 59.8765V118.251C145.738 118.939 145.551 119.505 145.179 119.949C144.806 120.393 144.281 120.675 143.603 120.795L131.811 122.874C130.692 123.071 129.862 122.684 129.32 121.713L127.744 120.959C123.712 124.354 118.968 126.532 113.512 127.494C107.65 128.528 102.228 128.022 97.2471 125.975C92.2658 123.894 88.3181 120.616 85.404 116.141C82.4898 111.665 81.0327 106.469 81.0327 100.55C81.0327 94.6664 82.4898 88.9901 85.404 83.5214C88.352 78.0123 92.3167 73.3735 97.2979 69.6048C102.279 65.8362 107.684 63.438 113.512 62.4103C119.103 61.4244 123.915 61.9695 127.948 64.0456L129.777 62.123ZM113.868 108.18C116.342 107.744 118.578 106.799 120.577 105.345C122.611 103.886 124.203 102.056 125.355 99.8575C126.541 97.6183 127.134 95.2256 127.134 92.6793C127.134 90.1331 126.558 87.9465 125.406 86.1196C124.254 84.2582 122.678 82.9188 120.679 82.1014C118.68 81.2841 116.46 81.0905 114.021 81.5207C111.547 81.9569 109.31 82.9362 107.311 84.4586C105.312 85.9466 103.736 87.8244 102.584 90.0921C101.432 92.3598 100.856 94.7667 100.856 97.3129C100.856 99.8936 101.415 102.083 102.533 103.882C103.651 105.68 105.193 106.957 107.159 107.711C109.158 108.46 111.394 108.616 113.868 108.18ZM183.756 50.0245C189.584 48.9968 194.989 49.489 199.97 51.501C204.951 53.513 208.899 56.7567 211.813 61.2321C214.761 65.6671 216.235 70.8265 216.235 76.7104C216.235 82.6287 214.778 88.3394 211.864 93.8425C208.95 99.3456 205.002 104.016 200.021 107.853C195.04 111.656 189.618 114.075 183.756 115.108C179.113 115.927 174.979 115.83 171.353 114.818V132.057C171.353 132.745 171.167 133.311 170.794 133.755C170.421 134.199 169.896 134.481 169.218 134.601L153.665 137.343C152.987 137.463 152.462 137.366 152.089 137.053C151.716 136.741 151.53 136.24 151.53 135.552V58.8551C151.53 57.4444 152.242 56.6135 153.665 56.3626L165 54.364C166.118 54.1668 166.948 54.5365 167.49 55.4732L169.32 56.7505C173.353 53.2524 178.164 51.0104 183.756 50.0245ZM183.4 95.9195C185.873 95.4834 188.093 94.5415 190.058 93.0938C192.058 91.6402 193.616 89.817 194.735 87.6241C195.853 85.4313 196.412 83.0445 196.412 80.4638C196.412 77.9176 195.836 75.7138 194.684 73.8524C193.532 71.9911 191.956 70.6689 189.957 69.886C187.957 69.0686 185.721 68.878 183.247 69.3142C180.807 69.7444 178.588 70.7207 176.589 72.2431C174.589 73.7655 173.014 75.6606 171.862 77.9282C170.709 80.1615 170.133 82.5512 170.133 85.0975C170.133 87.6437 170.709 89.8303 171.862 91.6572C173.048 93.4438 174.64 94.7114 176.639 95.4599C178.673 96.2025 180.926 96.3557 183.4 95.9195ZM353.195 20.1478C357.397 19.4069 361.548 19.9137 365.648 21.6682C366.393 22.0872 366.766 22.6065 366.766 23.2258C366.766 23.6387 366.647 24.0553 366.41 24.4756L359.498 38.8558C359.091 39.7189 358.549 40.2102 357.871 40.3297C357.498 40.3955 357.092 40.3467 356.651 40.1835C354.415 39.3048 352.28 39.0446 350.247 39.4031C348.281 39.7497 346.401 40.6318 344.605 42.0496C342.843 43.4614 341.402 45.3841 340.284 47.8179C339.166 50.2172 338.607 53.034 338.607 56.2685V84.2426C338.607 84.9308 338.421 85.497 338.048 85.9412C337.675 86.3855 337.15 86.6673 336.472 86.7868L320.918 89.5293C320.241 89.6488 319.716 89.5522 319.343 89.2394C318.97 88.9267 318.784 88.4262 318.784 87.738V29.3638C318.784 27.9531 319.495 27.1222 320.918 26.8713L332.762 24.783C333.88 24.5858 334.71 24.9556 335.252 25.8922L338.302 30.1029C339.928 27.4419 341.995 25.271 344.503 23.5901C347.044 21.8688 349.942 20.7214 353.195 20.1478ZM38.2785 214.199C38.2785 215.644 37.5838 216.489 36.1945 216.734L20.7934 219.449C20.1157 219.569 19.5904 219.472 19.2177 219.16C18.8449 218.847 18.6586 218.346 18.6586 217.658V141.323C18.6586 140.635 18.8449 140.068 19.2177 139.624C19.5904 139.18 20.1157 138.898 20.7934 138.779L36.1945 136.063C37.5838 135.818 38.2785 136.418 38.2785 137.863V214.199ZM72.9263 211.857C66.8946 212.921 61.3543 212.452 56.3053 210.452C51.2902 208.412 47.3255 205.171 44.4113 200.73C41.4972 196.289 40.0401 191.11 40.0401 185.191C40.0401 179.17 41.4972 173.407 44.4113 167.904C47.3594 162.361 51.3579 157.682 56.4069 153.867C61.4559 150.052 67.0132 147.609 73.0788 146.54C79.1782 145.464 84.7525 145.944 89.8014 147.978C94.8843 150.007 98.8998 153.273 101.848 157.777C104.796 162.246 106.27 167.492 106.27 173.513C106.27 179.431 104.779 185.131 101.797 190.612C98.849 196.086 94.8166 200.737 89.6998 204.564C84.6169 208.351 79.0257 210.782 72.9263 211.857ZM73.1296 192.621C75.6033 192.185 77.8567 191.203 79.8898 189.674C81.923 188.146 83.5156 186.265 84.6677 184.032C85.8537 181.758 86.4467 179.366 86.4467 176.854C86.4467 174.307 85.8537 172.124 84.6677 170.303C83.5156 168.441 81.923 167.105 79.8898 166.294C77.8567 165.482 75.6033 165.295 73.1296 165.731C70.6559 166.167 68.4025 167.149 66.3694 168.678C64.3701 170.2 62.7775 172.098 61.5915 174.372C60.4393 176.605 59.8633 178.995 59.8633 181.541C59.8633 184.053 60.4393 186.239 61.5915 188.101C62.7775 189.922 64.3701 191.241 66.3694 192.058C68.4025 192.87 70.6559 193.057 73.1296 192.621ZM136.823 200.59C130.791 201.654 125.251 201.186 120.202 199.186C115.187 197.145 111.222 193.904 108.308 189.463C105.394 185.022 103.937 179.843 103.937 173.925C103.937 167.903 105.394 162.141 108.308 156.638C111.256 151.094 115.255 146.415 120.304 142.6C125.353 138.785 130.91 136.343 136.976 135.273C143.075 134.198 148.649 134.677 153.698 136.712C158.781 138.74 162.797 142.006 165.745 146.51C168.693 150.979 170.167 156.225 170.167 162.246C170.167 168.165 168.676 173.864 165.694 179.345C162.746 184.819 158.713 189.47 153.597 193.297C148.514 197.084 142.923 199.515 136.823 200.59ZM137.026 181.354C139.5 180.918 141.753 179.936 143.787 178.408C145.82 176.879 147.412 174.998 148.565 172.765C149.751 170.492 150.344 168.099 150.344 165.587C150.344 163.041 149.751 160.857 148.565 159.036C147.412 157.175 145.82 155.838 143.787 155.027C141.753 154.216 139.5 154.028 137.026 154.464C134.553 154.9 132.299 155.883 130.266 157.411C128.267 158.933 126.674 160.831 125.488 163.105C124.336 165.338 123.76 167.728 123.76 170.274C123.76 172.786 124.336 174.973 125.488 176.834C126.674 178.655 128.267 179.974 130.266 180.792C132.299 181.603 134.553 181.791 137.026 181.354ZM246.364 115.366C251.04 114.541 255.09 114.928 258.512 116.527C261.969 118.119 264.629 120.954 266.492 125.029C268.39 129.065 269.339 134.265 269.339 140.631V173.456C269.339 174.902 268.627 175.75 267.204 176.001L251.65 178.743C250.973 178.863 250.447 178.766 250.075 178.453C249.702 178.141 249.516 177.64 249.516 176.952V144.745C249.516 141.305 248.77 138.752 247.279 137.088C245.788 135.424 243.602 134.846 240.722 135.354C238.825 135.689 237.147 136.449 235.69 137.635C234.233 138.821 233.064 140.266 232.183 141.969C231.302 143.639 230.76 145.369 230.556 147.159V180.295C230.556 180.983 230.37 181.549 229.997 181.993C229.625 182.438 229.099 182.72 228.422 182.839L212.868 185.582C211.445 185.833 210.733 185.235 210.733 183.79V151.584C210.733 148.143 209.988 145.591 208.497 143.927C207.006 142.263 204.82 141.684 201.94 142.192C199.907 142.551 198.111 143.418 196.552 144.794C194.993 146.17 193.79 147.827 192.943 149.766C192.096 151.67 191.672 153.603 191.672 155.564V187.151C191.672 187.839 191.486 188.406 191.113 188.85C190.74 189.294 190.215 189.576 189.538 189.695L173.984 192.438C173.306 192.557 172.781 192.461 172.408 192.148C172.035 191.835 171.849 191.335 171.849 190.647V132.272C171.849 130.862 172.561 130.031 173.984 129.78L185.827 127.692C186.437 127.584 186.928 127.618 187.301 127.793C187.708 127.962 188.047 128.298 188.318 128.801L189.944 130.837C195.129 126.241 200.991 123.366 207.531 122.213C211.36 121.538 214.783 121.657 217.798 122.57C220.848 123.478 223.406 125.194 225.473 127.72C231.166 120.936 238.13 116.818 246.364 115.366ZM307.877 166.661C307.877 168.106 307.165 168.954 305.742 169.205L288.612 172.226C287.189 172.477 286.478 171.88 286.478 170.434V155.105C286.478 153.66 287.189 152.812 288.612 152.561L305.742 149.541C307.165 149.29 307.877 149.887 307.877 151.332V166.661Z" fill="url(#paint0_radial_52_22)"/>
<path d="M67.0984 74.9298L75.4046 58.7051L75.4046 58.7051L67.0984 74.9298ZM78.9415 84.6609L64.542 95.8721L64.5768 95.9255L64.612 95.9786L78.9415 84.6609ZM78.9923 117.271L93.3919 123.404L93.3919 123.404L78.9923 117.271ZM67.1492 131.282L75.5297 144.521L75.5665 144.493L75.6032 144.465L67.1492 131.282ZM38.4818 138.247L45.3342 121.528L21.7401 114.94V141.199L38.4818 138.247ZM34.6188 78.902L19.8467 89.5067L21.3208 92.0534L23.6944 93.7103L34.6188 78.902ZM36.4486 80.1794L25.5243 94.9877L35.2543 101.78L45.8691 92.5717L36.4486 80.1794ZM57.1868 116.523L49.205 102.987L49.152 103.025L49.0992 103.064L57.1868 116.523ZM61.863 111.053L76.4143 116.894L76.4144 116.894L61.863 111.053ZM61.8122 97.2813L76.3779 86.3317L76.3779 86.3317L61.8122 97.2813ZM57.0851 93.3148L48.726 109.518L48.819 109.556L48.9126 109.593L57.0851 93.3148ZM43.7172 95.6719L35.358 82.4165L35.358 82.4166L43.7172 95.6719ZM38.9901 101.357L53.4956 107.287L53.5259 107.229L53.5558 107.17L38.9901 101.357ZM38.9901 115.086L24.4845 126.132L24.5688 126.266L24.656 126.397L38.9901 115.086ZM43.768 118.889L35.7862 135.24L35.8377 135.259L35.8895 135.278L43.768 118.889ZM50.884 73.4534V90.4534C53.8475 89.9308 56.3824 90.1812 58.7922 91.1546L67.0984 74.9298L75.4046 58.7051C67.8519 55.6544 59.5773 54.9205 50.884 56.4534V73.4534ZM67.0984 74.9298L58.7922 91.1546C61.269 92.155 63.1125 93.6768 64.542 95.8721L78.9415 84.6609L93.3411 73.4497C88.9422 66.6942 82.8902 61.7286 75.4046 58.7051L67.0984 74.9298ZM78.9415 84.6609L64.612 95.9786C65.9549 97.9988 66.6219 100.253 66.6219 103.091L83.3636 100.139L100.105 97.1872C100.105 88.2581 97.8242 80.193 93.271 73.3433L78.9415 84.6609ZM83.3636 100.139L66.6219 103.091C66.6219 106.023 65.9415 108.591 64.5928 111.138L78.9923 117.271L93.3919 123.404C97.8715 114.945 100.105 106.092 100.105 97.1872L83.3636 100.139ZM78.9923 117.271L64.5928 111.138C63.1426 113.877 61.2517 116.13 58.6952 118.099L67.1492 131.282L75.6032 144.465C83.0092 138.759 89.0137 131.672 93.3919 123.404L78.9923 117.271ZM67.1492 131.282L58.7688 118.043C56.3847 119.863 53.8618 121.012 50.884 121.537V138.537V155.537C59.6308 153.995 67.9513 150.307 75.5297 144.521L67.1492 131.282ZM50.884 138.537V121.537C48.21 122.009 46.4725 121.845 45.3342 121.528L38.4818 138.247L31.6294 154.966C37.7427 156.673 44.2733 156.703 50.884 155.537V138.537ZM38.4818 138.247L21.7401 141.199V158.437L38.4818 155.485L55.2235 152.533V135.295L38.4818 138.247ZM38.4818 155.485L21.7401 158.437C21.7401 155.964 22.4895 151.535 26.0845 147.251L37.9227 157.184L49.7609 167.117C54.1014 161.945 55.2235 156.383 55.2235 152.533L38.4818 155.485ZM37.9227 157.184L26.0845 147.251C29.6795 142.966 33.9116 141.459 36.347 141.03V158.03V175.03C40.1378 174.361 45.4204 172.29 49.7609 167.117L37.9227 157.184ZM36.347 158.03V141.03L20.7934 143.772V160.772V177.772L36.347 175.03V158.03ZM20.7934 160.772V143.772C23.2288 143.343 27.4609 143.357 31.0559 146.374L19.2177 160.482L7.3795 174.59C11.72 178.232 17.0026 178.44 20.7934 177.772V160.772ZM19.2177 160.482L31.0559 146.374C34.6509 149.391 35.4003 153.556 35.4003 156.029L18.6586 158.981L1.91684 161.933C1.91684 165.782 3.03899 170.948 7.3795 174.59L19.2177 160.482ZM18.6586 158.981L35.4003 156.029V79.332L18.6586 82.284L1.91684 85.236V161.933L18.6586 158.981ZM18.6586 82.284L35.4003 79.332C35.4003 81.3523 34.8654 86.0604 30.887 90.7054C26.9834 95.2632 22.5625 96.4795 20.7934 96.7914V79.7914V62.7914C17.601 63.3543 12.1128 65.1115 7.49755 70.5001C2.80759 75.976 1.91684 81.8049 1.91684 85.236L18.6586 82.284ZM20.7934 79.7914V96.7914L32.1282 94.7928V77.7928V60.7928L20.7934 62.7914V79.7914ZM32.1282 77.7928V94.7928C30.07 95.1557 27.4363 95.1149 24.8478 93.9621C22.2861 92.8212 20.7201 91.0156 19.8467 89.5067L34.6188 78.902L49.3909 68.2973C47.9753 65.8517 45.7232 63.393 42.3313 61.8823C38.9125 60.3597 35.3046 60.2327 32.1282 60.7928V77.7928ZM34.6188 78.902L23.6944 93.7103L25.5243 94.9877L36.4486 80.1794L47.373 65.371L45.5432 64.0937L34.6188 78.902ZM36.4486 80.1794L45.8691 92.5717C46.7324 91.8227 48.1463 90.9361 50.884 90.4534V73.4534V56.4534C42.4394 57.9424 34.2298 61.5398 27.0282 67.7871L36.4486 80.1794ZM50.5282 119.348V136.348C55.5353 135.465 60.5862 133.435 65.2743 129.981L57.1868 116.523L49.0992 103.064C49.4344 102.817 49.7746 102.629 50.0753 102.501C50.3682 102.377 50.536 102.347 50.5282 102.348V119.348ZM57.1868 116.523L65.1686 130.059C69.8988 126.62 73.7407 122.137 76.4143 116.894L61.863 111.053L47.3117 105.212C47.4954 104.852 47.7714 104.418 48.1479 103.977C48.5239 103.537 48.9003 103.208 49.205 102.987L57.1868 116.523ZM61.863 111.053L76.4144 116.894C79.1393 111.55 80.2821 106.097 80.2821 100.941L63.5404 103.893L46.7987 106.845C46.7987 106.884 46.7951 106.718 46.872 106.389C46.9514 106.05 47.0931 105.641 47.3117 105.212L61.863 111.053ZM63.5404 103.893L80.2821 100.941C80.2821 95.6782 79.0602 90.6653 76.3779 86.3317L61.8122 97.2813L47.2465 108.231C47.085 107.97 46.959 107.672 46.8808 107.372C46.8042 107.079 46.7987 106.883 46.7987 106.845L63.5404 103.893ZM61.8122 97.2813L76.3779 86.3317C73.7482 82.0832 69.9854 78.8884 65.2577 77.0369L57.0851 93.3148L48.9126 109.593C48.6065 109.473 48.2592 109.28 47.9282 109.002C47.5988 108.725 47.3778 108.443 47.2465 108.231L61.8122 97.2813ZM57.0851 93.3148L65.4443 77.1115C60.7198 75.18 55.565 74.828 50.3757 75.743V92.743V109.743C50.3034 109.756 50.0715 109.787 49.7324 109.758C49.3868 109.728 49.0384 109.646 48.726 109.518L57.0851 93.3148ZM50.3757 92.743V75.743C45.1764 76.6598 40.0468 78.8461 35.358 82.4165L43.7172 95.6719L52.0763 108.927C51.7823 109.151 51.441 109.355 51.0871 109.511C50.7385 109.664 50.4844 109.724 50.3757 109.743V92.743ZM43.7172 95.6719L35.358 82.4166C30.7344 85.9374 27.0304 90.4148 24.4244 95.5442L38.9901 101.357L53.5558 107.17C53.4345 107.409 53.233 107.737 52.9373 108.093C52.6406 108.45 52.3351 108.73 52.0763 108.927L43.7172 95.6719ZM38.9901 101.357L24.4845 95.4267C21.7418 100.743 20.5202 106.219 20.5202 111.478L37.2619 108.526L54.0036 105.574C54.0036 105.611 53.9983 105.825 53.9141 106.175C53.8279 106.532 53.6862 106.918 53.4956 107.287L38.9901 101.357ZM37.2619 108.526L20.5202 111.478C20.5202 116.738 21.7418 121.783 24.4845 126.132L38.9901 115.086L53.4956 104.04C53.6862 104.342 53.8279 104.678 53.9141 105.005C53.9983 105.325 54.0036 105.537 54.0036 105.574L37.2619 108.526ZM38.9901 115.086L24.656 126.397C27.3667 130.48 31.1418 133.501 35.7862 135.24L43.768 118.889L51.7498 102.538C52.0189 102.639 52.3383 102.806 52.6522 103.056C52.9654 103.305 53.1858 103.567 53.3241 103.775L38.9901 115.086ZM43.768 118.889L35.8895 135.278C40.5242 136.971 45.5141 137.232 50.5282 136.348V119.348V102.348C50.5224 102.349 50.6604 102.325 50.8992 102.342C51.1435 102.358 51.404 102.411 51.6465 102.5L43.768 118.889ZM129.777 62.123L140.702 73.0788L143.249 70.4028L144.752 67.0852L129.777 62.123ZM145.179 119.949L157.017 129.883L157.017 129.883L145.179 119.949ZM129.32 121.713L144.197 111.293L142.149 107.625L138.396 105.828L129.32 121.713ZM127.744 120.959L136.82 105.073L127.672 100.693L118.567 108.359L127.744 120.959ZM97.2471 125.975L88.7931 142.139L88.8298 142.154L88.8666 142.17L97.2471 125.975ZM85.404 116.141L99.8035 104.93L85.404 116.141ZM85.404 83.5214L71.048 77.3063L71.0392 77.3228L71.0305 77.3393L85.404 83.5214ZM127.948 64.0456L118.527 79.76L129.142 85.225L138.872 75.0014L127.948 64.0456ZM120.577 105.345L112.699 91.7344L112.647 91.7715L112.596 91.8091L120.577 105.345ZM125.355 99.8575L110.957 93.723L110.934 93.765L110.912 93.807L125.355 99.8575ZM125.406 86.1196L110.841 97.0691L110.87 97.1174L110.901 97.1653L125.406 86.1196ZM120.679 82.1014L129.038 65.8982L129.038 65.8982L120.679 82.1014ZM107.311 84.4586L115.484 97.8544L115.577 97.7847L115.67 97.714L107.311 84.4586ZM102.584 90.0921L88.0184 84.2792L88.0184 84.2792L102.584 90.0921ZM102.533 103.882L87.9819 114.854L87.982 114.854L102.533 103.882ZM107.159 107.711L99.0711 124.022L99.1239 124.042L99.1768 124.062L107.159 107.711ZM129.777 62.123L144.752 67.0852C143.982 68.7844 142.34 71.5627 139.23 73.9534L130.794 60.7566L122.358 47.5598C118.435 50.5756 116.115 54.2648 114.803 57.1608L129.777 62.123ZM130.794 60.7566L139.23 73.9534C136.56 76.0053 133.996 76.8307 132.268 77.1354V60.1354V43.1354C129.388 43.6432 125.841 44.8828 122.358 47.5598L130.794 60.7566ZM132.268 60.1354V77.1354L143.603 75.1368V58.1368V41.1368L132.268 43.1354V60.1354ZM143.603 58.1368V75.1368C141.834 75.4487 137.413 75.7915 133.509 72.6104C129.531 69.3683 128.996 64.8489 128.996 62.8285L145.738 59.8765L162.479 56.9245C162.479 53.4933 161.589 47.9786 156.899 44.1566C152.284 40.3956 146.795 40.5739 143.603 41.1368V58.1368ZM145.738 59.8765L128.996 62.8285V121.203L145.738 118.251L162.479 115.299V56.9245L145.738 59.8765ZM145.738 118.251L128.996 121.203C128.996 118.73 129.745 114.3 133.34 110.016L145.179 119.949L157.017 129.883C161.357 124.71 162.479 119.148 162.479 115.299L145.738 118.251ZM145.179 119.949L133.34 110.016C136.935 105.731 141.168 104.224 143.603 103.795V120.795V137.795C147.394 137.126 152.676 135.056 157.017 129.883L145.179 119.949ZM143.603 120.795V103.795L131.811 105.874V122.874V139.874L143.603 137.795V120.795ZM131.811 122.874V105.874C133.971 105.493 136.681 105.567 139.3 106.787C141.867 107.984 143.381 109.831 144.197 111.293L129.32 121.713L114.443 132.133C115.801 134.566 118.001 137.093 121.398 138.676C124.848 140.284 128.532 140.452 131.811 139.874V122.874ZM129.32 121.713L138.396 105.828L136.82 105.073L127.744 120.959L118.668 136.844L120.244 137.599L129.32 121.713ZM127.744 120.959L118.567 108.359C117.609 109.165 116.149 110.029 113.512 110.494V127.494V144.494C121.786 143.035 129.815 139.542 136.922 133.559L127.744 120.959ZM113.512 127.494V110.494C110.535 111.019 108.012 110.76 105.628 109.781L97.2471 125.975L88.8666 142.17C96.445 145.283 104.766 146.036 113.512 144.494V127.494ZM97.2471 125.975L105.701 109.811C103.145 108.743 101.254 107.157 99.8035 104.93L85.404 116.141L71.0044 127.352C75.3826 134.076 81.3871 139.045 88.7931 142.139L97.2471 125.975ZM85.404 116.141L99.8035 104.93C98.4548 102.858 97.7744 100.53 97.7744 97.5982L81.0327 100.55L64.291 103.502C64.291 112.407 66.5248 120.472 71.0044 127.352L85.404 116.141ZM81.0327 100.55L97.7744 97.5982C97.7744 94.7207 98.4447 92.2047 99.7775 89.7036L85.404 83.5214L71.0305 77.3393C66.5349 85.7755 64.291 94.6121 64.291 103.502L81.0327 100.55ZM85.404 83.5214L99.7599 89.7365C101.23 86.989 103.11 84.7871 105.604 82.9004L97.2979 69.6048L88.9917 56.3093C81.5231 61.9599 75.4739 69.0357 71.048 77.3063L85.404 83.5214ZM97.2979 69.6048L105.604 82.9004C108.014 81.0772 110.549 79.9329 113.512 79.4103V62.4103V45.4103C104.819 46.9432 96.5444 50.5952 88.9917 56.3093L97.2979 69.6048ZM113.512 62.4103V79.4103C116.25 78.9276 117.664 79.3156 118.527 79.76L127.948 64.0456L137.368 48.3312C130.167 44.6235 121.957 43.9213 113.512 45.4103V62.4103ZM127.948 64.0456L138.872 75.0014L140.702 73.0788L129.777 62.123L118.853 51.1672L117.023 53.0898L127.948 64.0456ZM113.868 108.18V125.18C118.879 124.296 123.899 122.27 128.559 118.881L120.577 105.345L112.596 91.8091C112.884 91.5994 113.184 91.4332 113.456 91.3181C113.722 91.2058 113.875 91.1787 113.868 91.1798V108.18ZM120.577 105.345L128.456 118.956C133.185 115.561 137.064 111.127 139.798 105.908L125.355 99.8575L110.912 93.807C111.093 93.4624 111.36 93.0526 111.719 92.6409C112.076 92.2303 112.427 91.9298 112.699 91.7344L120.577 105.345ZM125.355 99.8575L139.754 105.992C142.594 100.63 143.876 95.0771 143.876 89.7273L127.134 92.6793L110.393 95.6314C110.393 95.5547 110.403 95.2999 110.499 94.912C110.597 94.516 110.755 94.1044 110.957 93.723L125.355 99.8575ZM127.134 92.6793L143.876 89.7273C143.876 84.4679 142.654 79.423 139.912 75.0738L125.406 86.1196L110.901 97.1653C110.71 96.8632 110.568 96.5273 110.482 96.2002C110.398 95.8806 110.393 95.6683 110.393 95.6314L127.134 92.6793ZM125.406 86.1196L139.972 75.17C137.366 70.9597 133.662 67.7885 129.038 65.8982L120.679 82.1014L112.32 98.3047C112.061 98.1989 111.756 98.0261 111.459 97.7739C111.163 97.5225 110.962 97.265 110.841 97.0691L125.406 86.1196ZM120.679 82.1014L129.038 65.8982C124.35 63.9813 119.22 63.6039 114.021 64.5207V81.5207V98.5207C113.912 98.5399 113.658 98.5701 113.309 98.5397C112.955 98.5088 112.614 98.4249 112.32 98.3047L120.679 82.1014ZM114.021 81.5207V64.5207C108.831 65.4357 103.677 67.6056 98.952 71.2032L107.311 84.4586L115.67 97.714C115.358 97.9518 115.01 98.1573 114.664 98.3086C114.325 98.4571 114.093 98.5079 114.021 98.5207V81.5207ZM107.311 84.4586L99.1386 71.0627C94.4109 74.5815 90.6481 79.1033 88.0184 84.2792L102.584 90.0921L117.15 95.905C117.019 96.1633 116.798 96.5238 116.468 96.9164C116.137 97.3109 115.79 97.6266 115.484 97.8544L107.311 84.4586ZM102.584 90.0921L88.0184 84.2792C85.3361 89.5586 84.1142 95.0025 84.1142 100.265L100.856 97.3129L117.598 94.3609C117.598 94.3989 117.592 94.5976 117.515 94.9177C117.437 95.2444 117.311 95.5871 117.15 95.905L102.584 90.0921ZM100.856 97.3129L84.1142 100.265C84.1142 105.421 85.257 110.472 87.9819 114.854L102.533 103.882L117.085 92.909C117.303 93.2606 117.445 93.6206 117.524 93.9316C117.601 94.2328 117.598 94.4003 117.598 94.3609L100.856 97.3129ZM102.533 103.882L87.982 114.854C90.6139 119.088 94.3835 122.223 99.0711 124.022L107.159 107.711L115.246 91.4004C115.565 91.5229 115.938 91.7247 116.301 92.0251C116.663 92.325 116.92 92.644 117.085 92.909L102.533 103.882ZM107.159 107.711L99.1768 124.062C103.838 125.807 108.857 126.063 113.868 125.18V108.18V91.1798C113.861 91.181 114.014 91.1543 114.28 91.1729C114.552 91.1919 114.852 91.2523 115.141 91.3603L107.159 107.711ZM199.97 51.501L208.276 35.2762L208.276 35.2762L199.97 51.501ZM211.813 61.2321L197.413 72.4433L197.448 72.4967L197.484 72.5497L211.813 61.2321ZM211.864 93.8425L226.263 99.9756L226.263 99.9756L211.864 93.8425ZM200.021 107.853L208.401 121.092L208.438 121.064L208.475 121.036L200.021 107.853ZM171.353 114.818L178.206 98.0988L154.612 91.5115V117.77L171.353 114.818ZM167.49 55.4732L152.718 66.0779L154.192 68.6245L156.566 70.2815L167.49 55.4732ZM169.32 56.7505L158.396 71.5589L168.126 78.3511L178.741 69.1428L169.32 56.7505ZM190.058 93.0938L182.076 79.5577L182.023 79.5962L181.971 79.6351L190.058 93.0938ZM194.735 87.6241L209.286 93.4653L209.286 93.4652L194.735 87.6241ZM194.684 73.8524L209.249 62.9029L209.249 62.9029L194.684 73.8524ZM189.957 69.886L181.598 86.0892L181.69 86.1272L181.784 86.1639L189.957 69.886ZM176.589 72.2431L168.23 58.9877L168.23 58.9877L176.589 72.2431ZM171.862 77.9282L186.367 83.8586L186.397 83.7999L186.427 83.7411L171.862 77.9282ZM171.862 91.6572L157.356 102.703L157.44 102.837L157.528 102.968L171.862 91.6572ZM176.639 95.4599L168.658 111.811L168.709 111.83L168.761 111.849L176.639 95.4599ZM183.756 50.0245V67.0245C186.719 66.502 189.254 66.7524 191.664 67.7257L199.97 51.501L208.276 35.2762C200.723 32.2256 192.449 31.4917 183.756 33.0245V50.0245ZM199.97 51.501L191.664 67.7257C194.141 68.7262 195.984 70.248 197.413 72.4433L211.813 61.2321L226.213 50.0209C221.814 43.2654 215.762 38.2998 208.276 35.2762L199.97 51.501ZM211.813 61.2321L197.484 72.5497C198.826 74.57 199.493 76.8238 199.493 79.6624L216.235 76.7104L232.977 73.7584C232.977 64.8293 230.696 56.7642 226.143 49.9144L211.813 61.2321ZM216.235 76.7104L199.493 79.6624C199.493 82.5939 198.813 85.1624 197.464 87.7093L211.864 93.8425L226.263 99.9756C230.743 91.5163 232.977 82.6635 232.977 73.7584L216.235 76.7104ZM211.864 93.8425L197.464 87.7093C196.014 90.4479 194.123 92.7012 191.567 94.6706L200.021 107.853L208.475 121.036C215.881 115.331 221.885 108.243 226.263 99.9756L211.864 93.8425ZM200.021 107.853L191.64 94.6142C189.256 96.4344 186.733 97.5834 183.756 98.1084V115.108V132.108C192.502 130.566 200.823 126.878 208.401 121.092L200.021 107.853ZM183.756 115.108V98.1084C181.081 98.5799 179.344 98.4166 178.206 98.0988L171.353 114.818L164.501 131.537C170.614 133.244 177.145 133.274 183.756 132.108V115.108ZM171.353 114.818L154.612 117.77V135.009L171.353 132.057L188.095 129.105V111.866L171.353 114.818ZM171.353 132.057L154.612 135.009C154.612 132.536 155.361 128.106 158.956 123.822L170.794 133.755L182.632 143.689C186.973 138.516 188.095 132.954 188.095 129.105L171.353 132.057ZM170.794 133.755L158.956 123.822C162.551 119.537 166.783 118.03 169.218 117.601V134.601V151.601C173.009 150.932 178.292 148.861 182.632 143.689L170.794 133.755ZM169.218 134.601V117.601L153.665 120.343V137.343V154.343L169.218 151.601V134.601ZM153.665 137.343V120.343C156.1 119.914 160.332 119.929 163.927 122.945L152.089 137.053L140.251 151.162C144.592 154.804 149.874 155.012 153.665 154.343V137.343ZM152.089 137.053L163.927 122.945C167.522 125.962 168.272 130.127 168.272 132.6L151.53 135.552L134.788 138.504C134.788 142.353 135.91 147.519 140.251 151.162L152.089 137.053ZM151.53 135.552L168.272 132.6V55.9031L151.53 58.8551L134.788 61.8072V138.504L151.53 135.552ZM151.53 58.8551L168.272 55.9031C168.272 57.9235 167.737 62.6316 163.758 67.2766C159.855 71.8344 155.434 73.0506 153.665 73.3626V56.3626V39.3626C150.473 39.9255 144.984 41.6826 140.369 47.0713C135.679 52.5472 134.788 58.376 134.788 61.8072L151.53 58.8551ZM153.665 56.3626V73.3626L165 71.364V54.364V37.364L153.665 39.3626V56.3626ZM165 54.364V71.364C162.942 71.7269 160.308 71.6861 157.719 70.5333C155.158 69.3924 153.592 67.5868 152.718 66.0779L167.49 55.4732L182.262 44.8685C180.847 42.4229 178.595 39.9641 175.203 38.4535C171.784 36.9309 168.176 36.8039 165 37.364V54.364ZM167.49 55.4732L156.566 70.2815L158.396 71.5589L169.32 56.7505L180.245 41.9422L178.415 40.6649L167.49 55.4732ZM169.32 56.7505L178.741 69.1428C179.604 68.3939 181.018 67.5073 183.756 67.0245V50.0245V33.0245C175.311 34.5135 167.101 38.1109 159.9 44.3583L169.32 56.7505ZM183.4 95.9195V112.92C188.407 112.037 193.458 110.006 198.146 106.553L190.058 93.0938L181.971 79.6351C182.306 79.3882 182.646 79.1997 182.947 79.0721C183.24 78.9478 183.407 78.9182 183.4 78.9195V95.9195ZM190.058 93.0938L198.04 106.63C202.77 103.191 206.612 98.7083 209.286 93.4653L194.735 87.6241L180.183 81.783C180.367 81.4228 180.643 80.9888 181.019 80.5484C181.395 80.1085 181.772 79.7792 182.076 79.5577L190.058 93.0938ZM194.735 87.6241L209.286 93.4652C212.011 88.1216 213.154 82.6678 213.154 77.5118L196.412 80.4638L179.67 83.4159C179.67 83.4552 179.667 83.289 179.744 82.9606C179.823 82.6217 179.965 82.2117 180.183 81.783L194.735 87.6241ZM196.412 80.4638L213.154 77.5118C213.154 72.2494 211.932 67.2364 209.249 62.9029L194.684 73.8524L180.118 84.802C179.957 84.541 179.831 84.2428 179.752 83.9436C179.676 83.6506 179.67 83.4538 179.67 83.4159L196.412 80.4638ZM194.684 73.8524L209.249 62.9029C206.62 58.6544 202.857 55.4595 198.129 53.608L189.957 69.886L181.784 86.1639C181.478 86.044 181.131 85.8507 180.8 85.573C180.47 85.2966 180.249 85.014 180.118 84.802L194.684 73.8524ZM189.957 69.886L198.316 53.6827C193.591 51.7512 188.436 51.3992 183.247 52.3142V69.3142V86.3142C183.175 86.3269 182.943 86.3579 182.604 86.329C182.258 86.2995 181.91 86.2169 181.598 86.0892L189.957 69.886ZM183.247 69.3142V52.3142C178.048 53.2309 172.918 55.4173 168.23 58.9877L176.589 72.2431L184.948 85.4985C184.654 85.7223 184.312 85.9266 183.959 86.0823C183.61 86.2356 183.356 86.295 183.247 86.3142V69.3142ZM176.589 72.2431L168.23 58.9877C163.606 62.5086 159.902 66.986 157.296 72.1153L171.862 77.9282L186.427 83.7411C186.306 83.9798 186.105 84.3083 185.809 84.664C185.512 85.0209 185.207 85.3014 184.948 85.4985L176.589 72.2431ZM171.862 77.9282L157.356 71.9979C154.613 77.3144 153.392 82.79 153.392 88.0495L170.133 85.0975L186.875 82.1454C186.875 82.1824 186.87 82.3966 186.786 82.7459C186.699 83.1033 186.558 83.4892 186.367 83.8586L171.862 77.9282ZM170.133 85.0975L153.392 88.0495C153.392 93.3089 154.613 98.3538 157.356 102.703L171.862 91.6572L186.367 80.6115C186.558 80.9136 186.699 81.2495 186.786 81.5766C186.87 81.8962 186.875 82.1085 186.875 82.1454L170.133 85.0975ZM171.862 91.6572L157.528 102.968C160.238 107.051 164.013 110.072 168.658 111.811L176.639 95.4599L184.621 79.109C184.89 79.2097 185.21 79.3773 185.524 79.6271C185.837 79.8763 186.057 80.138 186.196 80.3465L171.862 91.6572ZM176.639 95.4599L168.761 111.849C173.396 113.542 178.386 113.804 183.4 112.92V95.9195V78.9195C183.394 78.9206 183.532 78.8966 183.771 78.9129C184.015 78.9295 184.276 78.9822 184.518 79.0708L176.639 95.4599ZM365.648 21.6682L375.495 6.18334L374.871 5.83285L374.209 5.54937L365.648 21.6682ZM366.41 24.4756L352.286 17.8393L351.941 18.4509L351.638 19.0804L366.41 24.4756ZM359.498 38.8558L344.725 33.4606L344.69 33.5349L344.655 33.6094L359.498 38.8558ZM356.651 40.1835L348.464 56.4559L348.589 56.5047L348.714 56.5511L356.651 40.1835ZM344.605 42.0496L335.951 29.0223L335.891 29.0702L335.83 29.1185L344.605 42.0496ZM340.284 47.8179L355.164 52.985L355.188 52.9333L355.212 52.8814L340.284 47.8179ZM319.343 89.2394L307.505 103.348L319.343 89.2394ZM335.252 25.8922L320.48 36.4969L320.827 37.0958L321.229 37.6514L335.252 25.8922ZM338.302 30.1029L324.279 41.8621L337.854 60.6047L352.045 37.3876L338.302 30.1029ZM344.503 23.5901L351.827 37.5857L351.869 37.5578L351.91 37.5298L344.503 23.5901ZM353.195 20.1478V37.1478C353.992 37.0073 355.218 36.9874 357.087 37.7869L365.648 21.6682L374.209 5.54937C367.877 2.84001 360.801 1.80659 353.195 3.14783V20.1478ZM365.648 21.6682L355.801 37.153C354.516 36.4305 350.024 33.3541 350.024 26.1778L366.766 23.2258L383.508 20.2738C383.508 11.8588 378.271 7.74398 375.495 6.18334L365.648 21.6682ZM366.766 23.2258L350.024 26.1778C350.024 23.0784 350.968 20.1754 352.286 17.8393L366.41 24.4756L380.535 31.112C382.327 27.9353 383.508 24.199 383.508 20.2738L366.766 23.2258ZM366.41 24.4756L351.638 19.0804L344.725 33.4606L359.498 38.8558L374.27 44.2511L381.182 29.8709L366.41 24.4756ZM359.498 38.8558L344.655 33.6094C345.293 32.2535 346.598 29.9805 349.015 27.7903C351.636 25.4147 354.76 23.8783 357.871 23.3297V40.3297V57.3297C366.695 55.7739 372.053 48.9568 374.341 44.1022L359.498 38.8558ZM357.871 40.3297V23.3297C361.054 22.7684 363.39 23.3721 364.588 23.816L356.651 40.1835L348.714 56.5511C350.793 57.3213 353.942 58.0225 357.871 57.3297V40.3297ZM356.651 40.1835L364.838 23.9112C360.742 22.3019 355.802 21.4236 350.247 22.4031V39.4031V56.4031C348.758 56.6657 348.087 56.3076 348.464 56.4559L356.651 40.1835ZM350.247 39.4031V22.4031C345.024 23.324 340.175 25.6879 335.951 29.0223L344.605 42.0496L353.258 55.0769C352.99 55.2886 352.566 55.5759 352 55.8417C351.426 56.1107 350.826 56.3009 350.247 56.4031V39.4031ZM344.605 42.0496L335.83 29.1185C330.971 33.0121 327.598 37.875 325.356 42.7543L340.284 47.8179L355.212 52.8814C355.22 52.8641 355.105 53.12 354.794 53.5342C354.473 53.9636 354.003 54.481 353.379 54.9806L344.605 42.0496ZM340.284 47.8179L325.404 42.6507C322.747 48.3525 321.865 54.0745 321.865 59.2205L338.607 56.2685L355.349 53.3164C355.349 52.6811 355.405 52.365 355.414 52.316C355.422 52.2781 355.375 52.5333 355.164 52.985L340.284 47.8179ZM338.607 56.2685L321.865 59.2205V87.1947L338.607 84.2426L355.349 81.2906V53.3164L338.607 56.2685ZM338.607 84.2426L321.865 87.1947C321.865 84.7217 322.615 80.2922 326.21 76.0078L338.048 85.9412L349.886 95.8746C354.226 90.7018 355.349 85.1399 355.349 81.2906L338.607 84.2426ZM338.048 85.9412L326.21 76.0078C329.805 71.7234 334.037 70.2162 336.472 69.7868V86.7868V103.787C340.263 103.118 345.545 101.047 349.886 95.8746L338.048 85.9412ZM336.472 86.7868V69.7868L320.918 72.5293V89.5293V106.529L336.472 103.787V86.7868ZM320.918 89.5293V72.5293C323.354 72.0999 327.586 72.1146 331.181 75.1312L319.343 89.2394L307.505 103.348C311.845 106.99 317.128 107.198 320.918 106.529V89.5293ZM319.343 89.2394L331.181 75.1312C334.776 78.1478 335.525 82.313 335.525 84.786L318.784 87.738L302.042 90.69C302.042 94.5393 303.164 99.7055 307.505 103.348L319.343 89.2394ZM318.784 87.738L335.525 84.786V26.4118L318.784 29.3638L302.042 32.3158V90.69L318.784 87.738ZM318.784 29.3638L335.525 26.4118C335.525 28.4322 334.99 33.1402 331.012 37.7853C327.108 42.3431 322.688 43.5593 320.918 43.8713V26.8713V9.87127C317.726 10.4342 312.238 12.1913 307.623 17.58C302.933 23.0559 302.042 28.8847 302.042 32.3158L318.784 29.3638ZM320.918 26.8713V43.8713L332.762 41.783V24.783V7.78301L320.918 9.87127V26.8713ZM332.762 24.783V41.783C330.703 42.1459 328.07 42.1052 325.481 40.9523C322.919 39.8114 321.353 38.0059 320.48 36.4969L335.252 25.8922L350.024 15.2875C348.609 12.8419 346.357 10.3832 342.965 8.87256C339.546 7.34996 335.938 7.22292 332.762 7.78301V24.783ZM335.252 25.8922L321.229 37.6514L324.279 41.8621L338.302 30.1029L352.325 18.3437L349.275 14.133L335.252 25.8922ZM338.302 30.1029L352.045 37.3876C352.07 37.3469 352.078 37.3384 352.066 37.3539C352.054 37.3698 352.03 37.4 351.993 37.4382C351.957 37.4765 351.919 37.5119 351.884 37.5415C351.867 37.5557 351.853 37.5667 351.842 37.5745C351.832 37.5823 351.827 37.5859 351.827 37.5857L344.503 23.5901L337.179 9.59451C332.04 13.0392 327.783 17.5423 324.559 22.8181L338.302 30.1029ZM344.503 23.5901L351.91 37.5298C351.897 37.5388 351.952 37.4976 352.123 37.4298C352.301 37.359 352.644 37.2449 353.195 37.1478V20.1478V3.14783C347.754 4.10724 342.26 6.15305 337.096 9.65043L344.503 23.5901ZM19.2177 219.16L7.3795 233.268L19.2177 219.16ZM38.2785 214.199L21.5368 217.151C21.5368 215.354 21.9668 210.789 25.7775 206.154C29.6612 201.429 34.2048 200.085 36.1945 199.734V216.734V233.734C39.5735 233.138 45.1591 231.249 49.7374 225.679C54.2428 220.198 55.0202 214.488 55.0202 211.247L38.2785 214.199ZM36.1945 216.734V199.734L20.7934 202.449V219.449V236.449L36.1945 233.734V216.734ZM20.7934 219.449V202.449C23.2288 202.02 27.4609 202.035 31.0559 205.051L19.2177 219.16L7.3795 233.268C11.72 236.91 17.0026 237.118 20.7934 236.449V219.449ZM19.2177 219.16L31.0559 205.051C34.6509 208.068 35.4003 212.233 35.4003 214.706L18.6586 217.658L1.91684 220.61C1.91684 224.459 3.03899 229.626 7.3795 233.268L19.2177 219.16ZM18.6586 217.658L35.4003 214.706V138.371L18.6586 141.323L1.91684 144.275V220.61L18.6586 217.658ZM18.6586 141.323L35.4003 138.371C35.4003 140.844 34.6509 145.273 31.0559 149.558L19.2177 139.624L7.3795 129.691C3.03898 134.863 1.91684 140.425 1.91684 144.275L18.6586 141.323ZM19.2177 139.624L31.0559 149.558C27.4609 153.842 23.2288 155.349 20.7934 155.779V138.779V121.779C17.0026 122.447 11.72 124.518 7.3795 129.691L19.2177 139.624ZM20.7934 138.779V155.779L36.1945 153.063V136.063V119.063L20.7934 121.779V138.779ZM36.1945 136.063V153.063C34.2048 153.414 29.6612 153.672 25.7775 150.317C21.9668 147.025 21.5368 142.612 21.5368 140.815L38.2785 137.863L55.0202 134.911C55.0202 131.67 54.2428 126.234 49.7374 122.342C45.1591 118.387 39.5735 118.467 36.1945 119.063V136.063ZM38.2785 137.863L21.5368 140.815V217.151L38.2785 214.199L55.0202 211.247V134.911L38.2785 137.863ZM56.3053 210.452L47.9674 226.664L48.0253 226.688L48.0835 226.711L56.3053 210.452ZM44.4113 200.73L58.7848 189.479L44.4113 200.73ZM44.4113 167.904L30.0294 161.738L30.0206 161.755L30.0118 161.771L44.4113 167.904ZM89.8014 147.978L81.5057 164.207L81.5266 164.216L81.5476 164.224L89.8014 147.978ZM101.848 157.777L87.4659 169.015L87.4789 169.035L87.492 169.055L101.848 157.777ZM101.797 190.612L87.5116 184.266L87.4895 184.306L87.4675 184.347L101.797 190.612ZM89.6998 204.564L97.8799 217.954L97.896 217.942L97.9122 217.93L89.6998 204.564ZM84.6677 184.032L70.2066 178.016L70.1843 178.059L70.1622 178.102L84.6677 184.032ZM84.6677 170.303L70.1021 181.252L70.1841 181.385L70.2689 181.515L84.6677 170.303ZM79.8898 166.294L88.1437 150.048L88.1437 150.048L79.8898 166.294ZM66.3694 168.678L58.1155 155.343L58.0628 155.382L58.0102 155.422L66.3694 168.678ZM61.5915 174.372L47.1303 168.356L47.108 168.399L47.0859 168.441L61.5915 174.372ZM61.5915 188.101L47.0258 199.05L47.1078 199.183L47.1927 199.313L61.5915 188.101ZM66.3694 192.058L58.0102 208.262L58.0628 208.283L58.1155 208.304L66.3694 192.058ZM72.9263 211.857V194.857C69.6533 195.434 66.9627 195.159 64.527 194.194L56.3053 210.452L48.0835 226.711C55.7459 229.746 64.1359 230.407 72.9263 228.857V211.857ZM56.3053 210.452L64.6432 194.24C62.0692 193.193 60.2018 191.638 58.7848 189.479L44.4113 200.73L30.0378 211.981C34.4493 218.704 40.5111 223.631 47.9674 226.664L56.3053 210.452ZM44.4113 200.73L58.7848 189.479C57.4615 187.462 56.7818 185.17 56.7818 182.239L40.0401 185.191L23.2983 188.143C23.2983 197.049 25.5328 205.116 30.0378 211.981L44.4113 200.73ZM40.0401 185.191L56.7818 182.239C56.7818 179.148 57.4897 176.532 58.8109 174.038L44.4113 167.904L30.0118 161.771C25.5046 170.283 23.2983 179.191 23.2983 188.143L40.0401 185.191ZM44.4113 167.904L58.7933 174.071C60.2476 171.336 62.1392 169.107 64.7026 167.17L56.4069 153.867L48.1112 140.563C40.5766 146.256 34.4712 153.386 30.0294 161.738L44.4113 167.904ZM56.4069 153.867L64.7026 167.17C67.1125 165.349 69.7909 164.12 73.0788 163.54V146.54V129.54C64.2355 131.099 55.7993 134.754 48.1112 140.563L56.4069 153.867ZM73.0788 146.54V163.54C76.418 162.951 79.1103 163.242 81.5057 164.207L89.8014 147.978L98.0972 131.749C90.3946 128.646 81.9385 127.978 73.0788 129.54V146.54ZM89.8014 147.978L81.5476 164.224C84.1403 165.259 86.0279 166.818 87.4659 169.015L101.848 157.777L116.23 146.539C111.772 139.728 105.628 134.755 98.0553 131.733L89.8014 147.978ZM101.848 157.777L87.492 169.055C88.8227 171.072 89.5282 173.412 89.5282 176.465L106.27 173.513L123.012 170.561C123.012 161.571 120.769 153.42 116.204 146.499L101.848 157.777ZM106.27 173.513L89.5282 176.465C89.5282 179.319 88.855 181.797 87.5116 184.266L101.797 190.612L116.082 196.957C120.703 188.465 123.012 179.544 123.012 170.561L106.27 173.513ZM101.797 190.612L87.4675 184.347C86.0588 186.963 84.1663 189.194 81.4874 191.198L89.6998 204.564L97.9122 217.93C105.467 212.28 111.639 205.209 116.127 196.876L101.797 190.612ZM89.6998 204.564L81.5197 191.174C79.0553 193.01 76.3012 194.262 72.9263 194.857V211.857V228.857C81.7503 227.301 90.1786 223.691 97.8799 217.954L89.6998 204.564ZM73.1296 192.621V209.621C78.3209 208.706 83.4451 206.541 88.1437 203.009L79.8898 189.674L71.6359 176.339C71.903 176.139 72.2119 175.956 72.5284 175.818C72.8398 175.682 73.0564 175.634 73.1296 175.621V192.621ZM79.8898 189.674L88.1437 203.009C92.7426 199.552 96.5088 195.127 99.1733 189.962L84.6677 184.032L70.1622 178.102C70.3114 177.812 70.5346 177.463 70.8345 177.109C71.1334 176.756 71.422 176.5 71.6359 176.339L79.8898 189.674ZM84.6677 184.032L99.1289 190.048C101.886 184.763 103.188 179.264 103.188 173.902L86.4467 176.854L69.705 179.806C69.705 179.691 69.7202 179.429 69.8115 179.061C69.904 178.687 70.0449 178.326 70.2066 178.016L84.6677 184.032ZM86.4467 176.854L103.188 173.902C103.188 168.552 101.907 163.451 99.0665 159.091L84.6677 170.303L70.2689 181.515C70.0669 181.205 69.9096 180.849 69.8115 180.487C69.7153 180.133 69.705 179.882 69.705 179.806L86.4467 176.854ZM84.6677 170.303L99.2334 159.353C96.5874 155.078 92.8132 151.911 88.1437 150.048L79.8898 166.294L71.6359 182.539C71.3898 182.441 71.0806 182.273 70.771 182.013C70.4614 181.753 70.2415 181.478 70.1021 181.252L84.6677 170.303ZM79.8898 166.294L88.1437 150.048C83.4451 148.173 78.3209 147.816 73.1296 148.731V165.731V182.731C73.0564 182.744 72.8398 182.772 72.5284 182.746C72.2119 182.72 71.903 182.646 71.636 182.539L79.8898 166.294ZM73.1296 165.731V148.731C67.9383 149.646 62.8141 151.811 58.1155 155.343L66.3694 168.678L74.6233 182.013C74.3562 182.213 74.0473 182.396 73.7308 182.534C73.4194 182.67 73.2028 182.718 73.1296 182.731V165.731ZM66.3694 168.678L58.0102 155.422C53.4301 158.91 49.7557 163.323 47.1303 168.356L61.5915 174.372L76.0526 180.388C75.9537 180.577 75.779 180.86 75.5136 181.176C75.2469 181.494 74.9691 181.75 74.7285 181.933L66.3694 168.678ZM61.5915 174.372L47.0859 168.441C44.3432 173.758 43.1216 179.234 43.1216 184.493L59.8633 181.541L76.605 178.589C76.605 178.626 76.5997 178.84 76.5154 179.189C76.4293 179.547 76.2876 179.933 76.097 180.302L61.5915 174.372ZM59.8633 181.541L43.1216 184.493C43.1216 189.764 44.3632 194.749 47.0258 199.05L61.5915 188.101L76.1571 177.151C76.3085 177.396 76.4345 177.687 76.5154 177.994C76.5951 178.297 76.605 178.515 76.605 178.589L59.8633 181.541ZM61.5915 188.101L47.1927 199.313C49.8347 203.37 53.4996 206.418 58.0102 208.262L66.3694 192.058L74.7285 175.855C74.937 175.94 75.1942 176.083 75.4502 176.295C75.7057 176.506 75.8827 176.723 75.9903 176.889L61.5915 188.101ZM66.3694 192.058L58.1155 208.304C62.8141 210.179 67.9383 210.537 73.1296 209.621V192.621V175.621C73.2028 175.608 73.4194 175.58 73.7308 175.606C74.0473 175.632 74.3562 175.706 74.6233 175.813L66.3694 192.058ZM120.202 199.186L111.864 215.397L111.922 215.421L111.98 215.444L120.202 199.186ZM108.308 189.463L122.682 178.212L108.308 189.463ZM108.308 156.638L93.9262 150.471L93.9174 150.488L93.9086 150.504L108.308 156.638ZM153.698 136.712L145.403 152.941L145.423 152.949L145.444 152.957L153.698 136.712ZM165.745 146.51L151.363 157.748L151.376 157.768L151.389 157.788L165.745 146.51ZM165.694 179.345L151.408 172.999L151.386 173.04L151.364 173.081L165.694 179.345ZM153.597 193.297L161.777 206.687L161.793 206.675L161.809 206.663L153.597 193.297ZM148.565 172.765L134.103 166.749L134.081 166.792L134.059 166.835L148.565 172.765ZM148.565 159.036L133.999 169.986L134.081 170.118L134.166 170.248L148.565 159.036ZM143.787 155.027L152.041 138.781L152.041 138.781L143.787 155.027ZM130.266 157.411L122.012 144.076L121.96 144.116L121.907 144.156L130.266 157.411ZM125.488 163.105L111.027 157.089L111.005 157.132L110.983 157.175L125.488 163.105ZM125.488 176.834L110.923 187.784L111.005 187.916L111.089 188.046L125.488 176.834ZM130.266 180.792L121.907 196.995L121.96 197.016L122.012 197.037L130.266 180.792ZM136.823 200.59V183.59C133.55 184.167 130.859 183.892 128.424 182.927L120.202 199.186L111.98 215.444C119.643 218.479 128.033 219.14 136.823 217.59V200.59ZM120.202 199.186L128.54 182.974C125.966 181.926 124.099 180.372 122.682 178.212L108.308 189.463L93.9346 200.714C98.3461 207.437 104.408 212.364 111.864 215.397L120.202 199.186ZM108.308 189.463L122.682 178.212C121.358 176.196 120.679 173.904 120.679 170.973L103.937 173.925L87.1951 176.877C87.1951 185.782 89.4296 193.849 93.9346 200.714L108.308 189.463ZM103.937 173.925L120.679 170.973C120.679 167.881 121.387 165.266 122.708 162.771L108.308 156.638L93.9086 150.504C89.4014 159.016 87.1951 167.925 87.1951 176.877L103.937 173.925ZM108.308 156.638L122.69 162.804C124.144 160.069 126.036 157.84 128.599 155.903L120.304 142.6L112.008 129.296C104.473 134.99 98.368 142.119 93.9262 150.471L108.308 156.638ZM120.304 142.6L128.599 155.903C131.009 154.082 133.688 152.853 136.976 152.273V135.273V118.273C128.132 119.832 119.696 123.487 112.008 129.296L120.304 142.6ZM136.976 135.273V152.273C140.315 151.684 143.007 151.975 145.403 152.941L153.698 136.712L161.994 120.483C154.291 117.379 145.835 116.711 136.976 118.273V135.273ZM153.698 136.712L145.444 152.957C148.037 153.992 149.925 155.551 151.363 157.748L165.745 146.51L180.127 135.272C175.668 128.461 169.525 123.488 161.952 120.466L153.698 136.712ZM165.745 146.51L151.389 157.788C152.72 159.805 153.425 162.145 153.425 165.198L170.167 162.246L186.908 159.294C186.908 150.304 184.666 142.154 180.101 135.232L165.745 146.51ZM170.167 162.246L153.425 165.198C153.425 168.052 152.752 170.53 151.408 172.999L165.694 179.345L179.979 185.691C184.6 177.198 186.908 168.277 186.908 159.294L170.167 162.246ZM165.694 179.345L151.364 173.081C149.956 175.697 148.063 177.927 145.384 179.931L153.597 193.297L161.809 206.663C169.364 201.013 175.536 193.942 180.023 185.609L165.694 179.345ZM153.597 193.297L145.417 179.907C142.952 181.743 140.198 182.995 136.823 183.59V200.59V217.59C145.647 216.034 154.075 212.425 161.777 206.687L153.597 193.297ZM137.026 181.354V198.354C142.218 197.439 147.342 195.275 152.041 191.743L143.787 178.408L135.533 165.073C135.8 164.872 136.109 164.689 136.425 164.551C136.737 164.416 136.953 164.367 137.026 164.354V181.354ZM143.787 178.408L152.041 191.743C156.639 188.285 160.406 183.86 163.07 178.696L148.565 172.765L134.059 166.835C134.208 166.546 134.431 166.196 134.731 165.842C135.03 165.489 135.319 165.233 135.533 165.073L143.787 178.408ZM148.565 172.765L163.026 178.781C165.783 173.496 167.085 167.997 167.085 162.635L150.344 165.587L133.602 168.539C133.602 168.424 133.617 168.162 133.708 167.794C133.801 167.42 133.942 167.059 134.103 166.749L148.565 172.765ZM150.344 165.587L167.085 162.635C167.085 157.285 165.803 152.184 162.963 147.824L148.565 159.036L134.166 170.248C133.964 169.938 133.806 169.582 133.708 169.221C133.612 168.867 133.602 168.616 133.602 168.539L150.344 165.587ZM148.565 159.036L163.13 148.087C160.484 143.812 156.71 140.645 152.041 138.781L143.787 155.027L135.533 171.273C135.287 171.175 134.977 171.006 134.668 170.746C134.358 170.486 134.138 170.211 133.999 169.986L148.565 159.036ZM143.787 155.027L152.041 138.781C147.342 136.906 142.218 136.549 137.026 137.464V154.464V171.464C136.953 171.477 136.737 171.505 136.425 171.479C136.109 171.453 135.8 171.379 135.533 171.273L143.787 155.027ZM137.026 154.464V137.464C131.835 138.38 126.711 140.544 122.012 144.076L130.266 157.411L138.52 170.746C138.253 170.947 137.944 171.129 137.628 171.267C137.316 171.403 137.1 171.451 137.026 171.464V154.464ZM130.266 157.411L121.907 144.156C117.327 147.643 113.652 152.056 111.027 157.089L125.488 163.105L139.949 169.121C139.851 169.311 139.676 169.594 139.41 169.91C139.144 170.228 138.866 170.483 138.625 170.666L130.266 157.411ZM125.488 163.105L110.983 157.175C108.24 162.491 107.018 167.967 107.018 173.226L123.76 170.274L140.502 167.322C140.502 167.359 140.496 167.573 140.412 167.923C140.326 168.28 140.184 168.666 139.994 169.035L125.488 163.105ZM123.76 170.274L107.018 173.226C107.018 178.498 108.26 183.482 110.923 187.784L125.488 176.834L140.054 165.885C140.205 166.129 140.331 166.421 140.412 166.728C140.492 167.03 140.502 167.248 140.502 167.322L123.76 170.274ZM125.488 176.834L111.089 188.046C113.732 192.103 117.396 195.151 121.907 196.995L130.266 180.792L138.625 164.588C138.834 164.674 139.091 164.816 139.347 165.028C139.602 165.24 139.78 165.457 139.887 165.622L125.488 176.834ZM130.266 180.792L122.012 197.037C126.711 198.913 131.835 199.27 137.026 198.354V181.354V164.354C137.1 164.342 137.316 164.313 137.628 164.339C137.944 164.366 138.253 164.439 138.52 164.546L130.266 180.792ZM258.512 116.527L249.551 132.467L249.583 132.481L249.614 132.496L258.512 116.527ZM266.492 125.029L251.11 134.453L251.142 134.521L251.174 134.589L266.492 125.029ZM247.279 137.088L234.115 149.912L234.115 149.912L247.279 137.088ZM235.69 137.635L226.787 124.807L226.787 124.807L235.69 137.635ZM232.183 141.969L246.596 148.076L246.638 147.997L246.679 147.918L232.183 141.969ZM230.556 147.159L213.929 148.105L213.815 149.115V150.111L230.556 147.159ZM196.552 144.794L186.991 132.524L186.991 132.524L196.552 144.794ZM192.943 149.766L207.976 154.598L208.004 154.535L208.032 154.471L192.943 149.766ZM172.408 192.148L160.57 206.256L172.408 192.148ZM187.301 127.793L178.313 143.72L178.586 143.848L178.865 143.965L187.301 127.793ZM188.318 128.801L173.343 139.044L173.923 140.118L174.674 141.058L188.318 128.801ZM189.944 130.837L176.3 143.094L185.927 155.143L199.539 143.076L189.944 130.837ZM217.798 122.57L210.653 139.204L210.686 139.214L210.719 139.224L217.798 122.57ZM225.473 127.72L211.927 140.098L223.448 154.176L237.312 137.654L225.473 127.72ZM246.364 115.366V132.366C248.367 132.012 249.202 132.303 249.551 132.467L258.512 116.527L267.473 100.587C260.978 97.5527 253.714 97.0697 246.364 98.3656V115.366ZM258.512 116.527L249.614 132.496C249.757 132.562 250.372 132.838 251.11 134.453L266.492 125.029L281.874 115.606C278.885 109.069 274.18 103.677 267.41 100.558L258.512 116.527ZM266.492 125.029L251.174 134.589C251.876 136.083 252.597 138.833 252.597 143.583L269.339 140.631L286.08 137.679C286.08 129.697 284.904 122.046 281.811 115.469L266.492 125.029ZM269.339 140.631L252.597 143.583V176.409L269.339 173.456L286.08 170.504V137.679L269.339 140.631ZM269.339 173.456L252.597 176.409C252.597 174.511 253.076 169.88 256.967 165.243C260.858 160.606 265.335 159.33 267.204 159.001V176.001V193.001C270.496 192.42 276.04 190.595 280.643 185.11C285.246 179.624 286.08 173.848 286.08 170.504L269.339 173.456ZM267.204 176.001V159.001L251.65 161.743V178.743V195.743L267.204 193.001V176.001ZM251.65 178.743V161.743C254.086 161.314 258.318 161.328 261.913 164.345L250.075 178.453L238.236 192.561C242.577 196.204 247.859 196.412 251.65 195.743V178.743ZM250.075 178.453L261.913 164.345C265.508 167.362 266.257 171.527 266.257 174L249.516 176.952L232.774 179.904C232.774 183.753 233.896 188.919 238.236 192.561L250.075 178.453ZM249.516 176.952L266.257 174V141.793L249.516 144.745L232.774 147.697V179.904L249.516 176.952ZM249.516 144.745L266.257 141.793C266.257 136.052 265.028 129.38 260.443 124.264L247.279 137.088L234.115 149.912C232.512 148.124 232.774 146.557 232.774 147.697L249.516 144.745ZM247.279 137.088L260.443 124.264C255.15 118.357 247.63 117.136 240.722 118.354V135.354V152.354C240.337 152.422 239.257 152.547 237.855 152.176C236.365 151.782 235.063 150.97 234.115 149.912L247.279 137.088ZM240.722 135.354V118.354C236.01 119.185 231.182 121.23 226.787 124.807L235.69 137.635L244.593 150.462C243.912 151.016 243.178 151.467 242.446 151.799C241.725 152.126 241.127 152.283 240.722 152.354V135.354ZM235.69 137.635L226.787 124.807C222.965 127.918 219.898 131.744 217.687 136.021L232.183 141.969L246.679 147.918C246.476 148.31 246.19 148.766 245.808 149.239C245.424 149.713 245.007 150.125 244.593 150.462L235.69 137.635ZM232.183 141.969L217.77 135.862C215.696 139.792 214.404 143.925 213.929 148.105L230.556 147.159L247.183 146.214C247.153 146.484 247.09 146.802 246.981 147.148C246.873 147.494 246.737 147.809 246.596 148.076L232.183 141.969ZM230.556 147.159L213.815 150.111V183.247L230.556 180.295L247.298 177.343V144.207L230.556 147.159ZM230.556 180.295L213.815 183.247C213.815 180.774 214.564 176.344 218.159 172.06L229.997 181.993L241.835 191.927C246.176 186.754 247.298 181.192 247.298 177.343L230.556 180.295ZM229.997 181.993L218.159 172.06C221.754 167.776 225.986 166.268 228.422 165.839V182.839V199.839C232.212 199.171 237.495 197.1 241.835 191.927L229.997 181.993ZM228.422 182.839V165.839L212.868 168.582V185.582V202.582L228.422 199.839V182.839ZM212.868 185.582V168.582C214.737 168.252 219.214 167.949 223.105 171.214C226.996 174.479 227.475 178.94 227.475 180.838L210.733 183.79L193.991 186.742C193.991 190.085 194.826 195.568 199.429 199.43C204.031 203.292 209.576 203.162 212.868 202.582V185.582ZM210.733 183.79L227.475 180.838V148.632L210.733 151.584L193.991 154.536V186.742L210.733 183.79ZM210.733 151.584L227.475 148.632C227.475 142.891 226.245 136.219 221.661 131.102L208.497 143.927L195.332 156.751C193.73 154.962 193.991 153.395 193.991 154.536L210.733 151.584ZM208.497 143.927L221.661 131.102C216.368 125.195 208.847 123.974 201.94 125.192V142.192V159.192C201.555 159.26 200.475 159.385 199.073 159.015C197.583 158.621 196.28 157.809 195.332 156.751L208.497 143.927ZM201.94 142.192V125.192C196.743 126.109 191.558 128.493 186.991 132.524L196.552 144.794L206.113 157.064C205.465 157.635 204.713 158.143 203.906 158.533C203.11 158.918 202.426 159.107 201.94 159.192V142.192ZM196.552 144.794L186.991 132.524C182.988 136.058 179.915 140.346 177.855 145.06L192.943 149.766L208.032 154.471C207.871 154.838 207.624 155.296 207.267 155.788C206.908 156.283 206.509 156.714 206.113 157.064L196.552 144.794ZM192.943 149.766L177.91 144.934C175.935 149.375 174.931 153.97 174.931 158.516L191.672 155.564L208.414 152.612C208.414 152.885 208.383 153.223 208.3 153.601C208.218 153.98 208.1 154.319 207.976 154.598L192.943 149.766ZM191.672 155.564L174.931 158.516V190.103L191.672 187.151L208.414 184.199V152.612L191.672 155.564ZM191.672 187.151L174.931 190.103C174.931 187.63 175.68 183.201 179.275 178.916L191.113 188.85L202.951 198.783C207.292 193.61 208.414 188.048 208.414 184.199L191.672 187.151ZM191.113 188.85L179.275 178.916C182.87 174.632 187.102 173.125 189.538 172.695V189.695V206.695C193.328 206.027 198.611 203.956 202.951 198.783L191.113 188.85ZM189.538 189.695V172.695L173.984 175.438V192.438V209.438L189.538 206.695V189.695ZM173.984 192.438V175.438C176.419 175.008 180.651 175.023 184.246 178.04L172.408 192.148L160.57 206.256C164.911 209.898 170.193 210.106 173.984 209.438V192.438ZM172.408 192.148L184.246 178.04C187.841 181.056 188.591 185.222 188.591 187.695L171.849 190.647L155.107 193.599C155.107 197.448 156.23 202.614 160.57 206.256L172.408 192.148ZM171.849 190.647L188.591 187.695V129.32L171.849 132.272L155.107 135.224V193.599L171.849 190.647ZM171.849 132.272L188.591 129.32C188.591 131.341 188.056 136.049 184.078 140.694C180.174 145.252 175.753 146.468 173.984 146.78V129.78V112.78C170.792 113.343 165.303 115.1 160.688 120.488C155.998 125.964 155.107 131.793 155.107 135.224L171.849 132.272ZM173.984 129.78V146.78L185.827 144.692V127.692V110.692L173.984 112.78V129.78ZM185.827 127.692V144.692C184.42 144.94 181.466 145.201 178.313 143.72L187.301 127.793L196.289 111.866C192.391 110.034 188.454 110.228 185.827 110.692V127.692ZM187.301 127.793L178.865 143.965C175.755 142.671 174.113 140.471 173.343 139.044L188.318 128.801L203.292 118.558C201.98 116.125 199.66 113.253 195.737 111.621L187.301 127.793ZM188.318 128.801L174.674 141.058L176.3 143.094L189.944 130.837L203.588 118.579L201.961 116.543L188.318 128.801ZM189.944 130.837L199.539 143.076C201.811 141.062 204.3 139.783 207.531 139.213V122.213V105.213C197.682 106.95 188.446 111.42 180.349 118.597L189.944 130.837ZM207.531 122.213V139.213C209.255 138.909 210.181 139.061 210.653 139.204L217.798 122.57L224.943 105.936C219.384 104.253 213.465 104.167 207.531 105.213V122.213ZM217.798 122.57L210.719 139.224C211.077 139.33 211.45 139.515 211.927 140.098L225.473 127.72L239.02 115.342C235.363 110.874 230.619 107.625 224.878 105.917L217.798 122.57ZM225.473 127.72L237.312 137.654C239.786 134.705 242.457 133.055 246.364 132.366V115.366V98.3656C233.803 100.58 222.547 107.166 213.635 117.787L225.473 127.72ZM307.877 166.661L291.135 169.613C291.135 167.715 291.613 163.085 295.505 158.448C299.396 153.81 303.873 152.535 305.742 152.205V169.205V186.205C309.034 185.625 314.578 183.8 319.181 178.315C323.784 172.829 324.618 167.052 324.618 163.709L307.877 166.661ZM305.742 169.205V152.205L288.612 155.226V172.226V189.226L305.742 186.205V169.205ZM288.612 172.226V155.226C290.482 154.896 294.958 154.593 298.85 157.858C302.741 161.123 303.219 165.585 303.219 167.482L286.478 170.434L269.736 173.386C269.736 176.73 270.57 182.212 275.173 186.074C279.776 189.937 285.32 189.806 288.612 189.226V172.226ZM286.478 170.434L303.219 167.482V152.153L286.478 155.105L269.736 158.057V173.386L286.478 170.434ZM286.478 155.105L303.219 152.153C303.219 154.051 302.741 158.682 298.85 163.319C294.958 167.956 290.482 169.232 288.612 169.561V152.561V135.561C285.32 136.142 279.776 137.967 275.173 143.452C270.57 148.938 269.736 154.714 269.736 158.057L286.478 155.105ZM288.612 152.561V169.561L305.742 166.541V149.541V132.541L288.612 135.561V152.561ZM305.742 149.541V166.541C303.873 166.87 299.396 167.174 295.505 163.909C291.613 160.644 291.135 156.182 291.135 154.284L307.877 151.332L324.618 148.38C324.618 145.037 323.784 139.555 319.181 135.692C314.578 131.83 309.034 131.96 305.742 132.541V149.541ZM307.877 151.332L291.135 154.284V169.613L307.877 166.661L324.618 163.709V148.38L307.877 151.332Z" fill="white" mask="url(#path-2-outside-1_52_22)"/>
<path d="M264.883 34.0691L234.106 62.9503C229.004 67.7376 225.633 74.1186 224.733 80.6894C223.833 87.2602 225.478 93.4826 229.307 97.9877C233.135 102.493 238.834 104.912 245.149 104.712C251.463 104.513 257.877 101.711 262.979 96.9237L299.526 62.6273C303.097 59.2761 305.457 54.8094 306.087 50.2099C306.717 45.6103 305.565 41.2546 302.885 38.101C300.205 34.9474 296.216 33.2542 291.796 33.3939C287.376 33.5336 282.886 35.4947 279.315 38.8459L246.615 69.5321C244.574 71.4471 243.226 73.9995 242.865 76.6278C242.505 79.2561 243.164 81.7451 244.695 83.5471C246.227 85.3492 248.506 86.3167 251.032 86.2369C253.558 86.1571 256.123 85.0364 258.164 83.1215L285.094 57.8505" stroke="white" stroke-width="32" stroke-linecap="round" stroke-linejoin="round"/>
<path d="M264.883 34.0691L234.106 62.9503C229.004 67.7376 225.633 74.1186 224.733 80.6894C223.833 87.2602 225.478 93.4826 229.307 97.9877C233.135 102.493 238.834 104.912 245.149 104.712C251.463 104.513 257.877 101.711 262.979 96.9237L299.526 62.6273C303.097 59.2761 305.457 54.8094 306.087 50.2099C306.717 45.6103 305.565 41.2546 302.885 38.101C300.205 34.9474 296.216 33.2542 291.796 33.3939C287.376 33.5336 282.886 35.4947 279.315 38.8459L246.615 69.5321C244.574 71.4471 243.225 73.9995 242.865 76.6278C242.505 79.2561 243.164 81.7451 244.695 83.5471C246.227 85.3492 248.506 86.3167 251.032 86.2369C253.558 86.1571 256.123 85.0364 258.164 83.1215L285.094 57.8505" stroke="#1FB854" stroke-width="10" stroke-linecap="round" stroke-linejoin="round"/>
</g>
<defs>
<filter id="filter0_d_52_22" x="0.0169922" y="0.444824" width="385.391" height="248.204" filterUnits="userSpaceOnUse" color-interpolation-filters="sRGB">
<feFlood flood-opacity="0" result="BackgroundImageFix"/>
<feColorMatrix in="SourceAlpha" type="matrix" values="0 0 0 0 0 0 0 0 0 0 0 0 0 0 0 0 0 0 127 0" result="hardAlpha"/>
<feOffset dy="10"/>
<feGaussianBlur stdDeviation="0.95"/>
<feComposite in2="hardAlpha" operator="out"/>
<feColorMatrix type="matrix" values="0 0 0 0 0 0 0 0 0 0 0 0 0 0 0 0 0 0 0.17 0"/>
<feBlend mode="normal" in2="BackgroundImageFix" result="effect1_dropShadow_52_22"/>
<feBlend mode="normal" in="SourceGraphic" in2="effect1_dropShadow_52_22" result="shape"/>
</filter>
<radialGradient id="paint0_radial_52_22" cx="0" cy="0" r="1" gradientUnits="userSpaceOnUse" gradientTransform="translate(257 73.5) rotate(142.036) scale(282.852 654.784)">
<stop offset="0.34604" stop-color="#1FB854"/>
<stop offset="1" stop-color="#209F4C"/>
</radialGradient>
</defs>
</svg>
