<svg width="388" height="249" viewBox="0 0 388 249" fill="none" xmlns="http://www.w3.org/2000/svg">
<g filter="url(#filter0_d_52_22)">
<path d="M25.3555 218.35V94.8503L230.688 63.1447L186.372 189.959L25.3555 218.35Z" fill="#57534D"/>
<mask id="path-2-outside-1_52_22" maskUnits="userSpaceOnUse" x="5.16711" y="-2.63902" width="383.09" height="244.549" fill="black">
<rect fill="white" x="5.16711" y="-2.63902" width="383.09" height="244.549"/>
<path d="M54.884 73.4534C60.7124 72.4257 66.1172 72.9178 71.0984 74.9298C76.0796 76.9418 80.0273 80.1855 82.9415 84.6609C85.8896 89.0959 87.3636 94.2554 87.3636 100.139C87.3636 106.058 85.9065 111.768 82.9923 117.271C80.0782 122.774 76.1305 127.445 71.1492 131.282C66.168 135.085 60.7463 137.504 54.884 138.537C50.2417 139.356 46.1076 139.259 42.4818 138.247V155.485C42.4818 156.174 42.2954 156.74 41.9227 157.184C41.5499 157.628 41.0247 157.91 40.347 158.03L24.7934 160.772C24.1157 160.892 23.5904 160.795 23.2177 160.482C22.8449 160.169 22.6586 159.669 22.6586 158.981V82.284C22.6586 80.8732 23.3702 80.0424 24.7934 79.7914L36.1282 77.7928C37.2464 77.5956 38.0766 77.9654 38.6188 78.902L40.4486 80.1794C44.4811 76.6812 49.2929 74.4392 54.884 73.4534ZM54.5282 119.348C57.0019 118.912 59.2214 117.97 61.1868 116.523C63.1861 115.069 64.7448 113.246 65.863 111.053C66.9813 108.86 67.5404 106.473 67.5404 103.893C67.5404 101.346 66.9643 99.1426 65.8122 97.2813C64.6601 95.4199 63.0844 94.0977 61.0851 93.3148C59.0859 92.4974 56.8494 92.3068 54.3757 92.743C51.936 93.1732 49.7164 94.1495 47.7172 95.6719C45.7179 97.1943 44.1422 99.0894 42.9901 101.357C41.838 103.59 41.2619 105.98 41.2619 108.526C41.2619 111.073 41.838 113.259 42.9901 115.086C44.1761 116.873 45.7687 118.14 47.768 118.889C49.8011 119.631 52.0546 119.785 54.5282 119.348ZM133.777 62.123C134.049 61.5246 134.387 61.0692 134.794 60.7566C135.201 60.4441 135.692 60.237 136.268 60.1354L147.603 58.1368C149.026 57.8858 149.738 58.4657 149.738 59.8765V118.251C149.738 118.939 149.551 119.505 149.179 119.949C148.806 120.393 148.281 120.675 147.603 120.795L135.811 122.874C134.692 123.071 133.862 122.684 133.32 121.713L131.744 120.959C127.712 124.354 122.968 126.532 117.512 127.494C111.65 128.528 106.228 128.022 101.247 125.975C96.2658 123.894 92.3181 120.616 89.404 116.141C86.4898 111.665 85.0327 106.469 85.0327 100.55C85.0327 94.6664 86.4898 88.9901 89.404 83.5214C92.352 78.0123 96.3167 73.3735 101.298 69.6048C106.279 65.8362 111.684 63.438 117.512 62.4103C123.103 61.4244 127.915 61.9695 131.948 64.0456L133.777 62.123ZM117.868 108.18C120.342 107.744 122.578 106.799 124.577 105.345C126.611 103.886 128.203 102.056 129.355 99.8575C130.541 97.6183 131.134 95.2256 131.134 92.6793C131.134 90.1331 130.558 87.9465 129.406 86.1196C128.254 84.2582 126.678 82.9188 124.679 82.1014C122.68 81.2841 120.46 81.0905 118.021 81.5207C115.547 81.9569 113.31 82.9362 111.311 84.4586C109.312 85.9466 107.736 87.8244 106.584 90.0921C105.432 92.3598 104.856 94.7667 104.856 97.3129C104.856 99.8936 105.415 102.083 106.533 103.882C107.651 105.68 109.193 106.957 111.159 107.711C113.158 108.46 115.394 108.616 117.868 108.18ZM187.756 50.0245C193.584 48.9968 198.989 49.489 203.97 51.501C208.951 53.513 212.899 56.7567 215.813 61.2321C218.761 65.6671 220.235 70.8265 220.235 76.7104C220.235 82.6287 218.778 88.3394 215.864 93.8425C212.95 99.3456 209.002 104.016 204.021 107.853C199.04 111.656 193.618 114.075 187.756 115.108C183.113 115.927 178.979 115.83 175.353 114.818V132.057C175.353 132.745 175.167 133.311 174.794 133.755C174.421 134.199 173.896 134.481 173.218 134.601L157.665 137.343C156.987 137.463 156.462 137.366 156.089 137.053C155.716 136.741 155.53 136.24 155.53 135.552V58.8551C155.53 57.4444 156.242 56.6135 157.665 56.3626L169 54.364C170.118 54.1668 170.948 54.5365 171.49 55.4732L173.32 56.7505C177.353 53.2524 182.164 51.0104 187.756 50.0245ZM187.4 95.9195C189.873 95.4834 192.093 94.5415 194.058 93.0938C196.058 91.6402 197.616 89.817 198.735 87.6241C199.853 85.4313 200.412 83.0445 200.412 80.4638C200.412 77.9176 199.836 75.7138 198.684 73.8524C197.532 71.9911 195.956 70.6689 193.957 69.886C191.957 69.0686 189.721 68.878 187.247 69.3142C184.807 69.7444 182.588 70.7207 180.589 72.2431C178.589 73.7655 177.014 75.6606 175.862 77.9282C174.709 80.1615 174.133 82.5512 174.133 85.0975C174.133 87.6437 174.709 89.8303 175.862 91.6572C177.048 93.4438 178.64 94.7114 180.639 95.4599C182.673 96.2025 184.926 96.3557 187.4 95.9195ZM357.195 20.1478C361.397 19.4069 365.548 19.9137 369.648 21.6682C370.393 22.0872 370.766 22.6065 370.766 23.2258C370.766 23.6387 370.647 24.0553 370.41 24.4756L363.498 38.8558C363.091 39.7189 362.549 40.2102 361.871 40.3297C361.498 40.3955 361.092 40.3467 360.651 40.1835C358.415 39.3048 356.28 39.0446 354.247 39.4031C352.281 39.7497 350.401 40.6318 348.605 42.0496C346.843 43.4614 345.402 45.3841 344.284 47.8179C343.166 50.2172 342.607 53.034 342.607 56.2685V84.2426C342.607 84.9308 342.421 85.497 342.048 85.9412C341.675 86.3855 341.15 86.6673 340.472 86.7868L324.918 89.5293C324.241 89.6488 323.716 89.5522 323.343 89.2394C322.97 88.9267 322.784 88.4262 322.784 87.738V29.3638C322.784 27.9531 323.495 27.1222 324.918 26.8713L336.762 24.783C337.88 24.5858 338.71 24.9556 339.252 25.8922L342.302 30.1029C343.928 27.4419 345.995 25.271 348.503 23.5901C351.044 21.8688 353.942 20.7214 357.195 20.1478ZM42.2785 214.199C42.2785 215.644 41.5838 216.489 40.1945 216.734L24.7934 219.449C24.1157 219.569 23.5904 219.472 23.2177 219.16C22.8449 218.847 22.6586 218.346 22.6586 217.658V141.323C22.6586 140.635 22.8449 140.068 23.2177 139.624C23.5904 139.18 24.1157 138.898 24.7934 138.779L40.1945 136.063C41.5838 135.818 42.2785 136.418 42.2785 137.863V214.199ZM76.9263 211.857C70.8946 212.921 65.3543 212.452 60.3053 210.452C55.2902 208.412 51.3255 205.171 48.4113 200.73C45.4972 196.289 44.0401 191.11 44.0401 185.191C44.0401 179.17 45.4972 173.407 48.4113 167.904C51.3594 162.361 55.3579 157.682 60.4069 153.867C65.4559 150.052 71.0132 147.609 77.0788 146.54C83.1782 145.464 88.7525 145.944 93.8014 147.978C98.8843 150.007 102.9 153.273 105.848 157.777C108.796 162.246 110.27 167.492 110.27 173.513C110.27 179.431 108.779 185.131 105.797 190.612C102.849 196.086 98.8166 200.737 93.6998 204.564C88.6169 208.351 83.0257 210.782 76.9263 211.857ZM77.1296 192.621C79.6033 192.185 81.8567 191.203 83.8898 189.674C85.923 188.146 87.5156 186.265 88.6677 184.032C89.8537 181.758 90.4467 179.366 90.4467 176.854C90.4467 174.307 89.8537 172.124 88.6677 170.303C87.5156 168.441 85.923 167.105 83.8898 166.294C81.8567 165.482 79.6033 165.295 77.1296 165.731C74.6559 166.167 72.4025 167.149 70.3694 168.678C68.3701 170.2 66.7775 172.098 65.5915 174.372C64.4393 176.605 63.8633 178.995 63.8633 181.541C63.8633 184.053 64.4393 186.239 65.5915 188.101C66.7775 189.922 68.3701 191.241 70.3694 192.058C72.4025 192.87 74.6559 193.057 77.1296 192.621ZM140.823 200.59C134.791 201.654 129.251 201.186 124.202 199.186C119.187 197.145 115.222 193.904 112.308 189.463C109.394 185.022 107.937 179.843 107.937 173.925C107.937 167.903 109.394 162.141 112.308 156.638C115.256 151.094 119.255 146.415 124.304 142.6C129.353 138.785 134.91 136.343 140.976 135.273C147.075 134.198 152.649 134.677 157.698 136.712C162.781 138.74 166.797 142.006 169.745 146.51C172.693 150.979 174.167 156.225 174.167 162.246C174.167 168.165 172.676 173.864 169.694 179.345C166.746 184.819 162.713 189.47 157.597 193.297C152.514 197.084 146.923 199.515 140.823 200.59ZM141.026 181.354C143.5 180.918 145.753 179.936 147.787 178.408C149.82 176.879 151.412 174.998 152.565 172.765C153.751 170.492 154.344 168.099 154.344 165.587C154.344 163.041 153.751 160.857 152.565 159.036C151.412 157.175 149.82 155.838 147.787 155.027C145.753 154.216 143.5 154.028 141.026 154.464C138.553 154.9 136.299 155.883 134.266 157.411C132.267 158.933 130.674 160.831 129.488 163.105C128.336 165.338 127.76 167.728 127.76 170.274C127.76 172.786 128.336 174.973 129.488 176.834C130.674 178.655 132.267 179.974 134.266 180.792C136.299 181.603 138.553 181.791 141.026 181.354ZM250.364 115.366C255.04 114.541 259.09 114.928 262.512 116.527C265.969 118.119 268.629 120.954 270.492 125.029C272.39 129.065 273.339 134.265 273.339 140.631V173.456C273.339 174.902 272.627 175.75 271.204 176.001L255.65 178.743C254.973 178.863 254.447 178.766 254.075 178.453C253.702 178.141 253.516 177.64 253.516 176.952V144.745C253.516 141.305 252.77 138.752 251.279 137.088C249.788 135.424 247.602 134.846 244.722 135.354C242.825 135.689 241.147 136.449 239.69 137.635C238.233 138.821 237.064 140.266 236.183 141.969C235.302 143.639 234.76 145.369 234.556 147.159V180.295C234.556 180.983 234.37 181.549 233.997 181.993C233.625 182.438 233.099 182.72 232.422 182.839L216.868 185.582C215.445 185.833 214.733 185.235 214.733 183.79V151.584C214.733 148.143 213.988 145.591 212.497 143.927C211.006 142.263 208.82 141.684 205.94 142.192C203.907 142.551 202.111 143.418 200.552 144.794C198.993 146.17 197.79 147.827 196.943 149.766C196.096 151.67 195.672 153.603 195.672 155.564V187.151C195.672 187.839 195.486 188.406 195.113 188.85C194.74 189.294 194.215 189.576 193.538 189.695L177.984 192.438C177.306 192.557 176.781 192.461 176.408 192.148C176.035 191.835 175.849 191.335 175.849 190.647V132.272C175.849 130.862 176.561 130.031 177.984 129.78L189.827 127.692C190.437 127.584 190.928 127.618 191.301 127.793C191.708 127.962 192.047 128.298 192.318 128.801L193.944 130.837C199.129 126.241 204.991 123.366 211.531 122.213C215.36 121.538 218.783 121.657 221.798 122.57C224.848 123.478 227.406 125.194 229.473 127.72C235.166 120.936 242.13 116.818 250.364 115.366ZM311.877 166.661C311.877 168.106 311.165 168.954 309.742 169.205L292.612 172.226C291.189 172.477 290.478 171.88 290.478 170.434V155.105C290.478 153.66 291.189 152.812 292.612 152.561L309.742 149.541C311.165 149.29 311.877 149.887 311.877 151.332V166.661Z"/>
</mask>
<path d="M54.884 73.4534C60.7124 72.4257 66.1172 72.9178 71.0984 74.9298C76.0796 76.9418 80.0273 80.1855 82.9415 84.6609C85.8896 89.0959 87.3636 94.2554 87.3636 100.139C87.3636 106.058 85.9065 111.768 82.9923 117.271C80.0782 122.774 76.1305 127.445 71.1492 131.282C66.168 135.085 60.7463 137.504 54.884 138.537C50.2417 139.356 46.1076 139.259 42.4818 138.247V155.485C42.4818 156.174 42.2954 156.74 41.9227 157.184C41.5499 157.628 41.0247 157.91 40.347 158.03L24.7934 160.772C24.1157 160.892 23.5904 160.795 23.2177 160.482C22.8449 160.169 22.6586 159.669 22.6586 158.981V82.284C22.6586 80.8732 23.3702 80.0424 24.7934 79.7914L36.1282 77.7928C37.2464 77.5956 38.0766 77.9654 38.6188 78.902L40.4486 80.1794C44.4811 76.6812 49.2929 74.4392 54.884 73.4534ZM54.5282 119.348C57.0019 118.912 59.2214 117.97 61.1868 116.523C63.1861 115.069 64.7448 113.246 65.863 111.053C66.9813 108.86 67.5404 106.473 67.5404 103.893C67.5404 101.346 66.9643 99.1426 65.8122 97.2813C64.6601 95.4199 63.0844 94.0977 61.0851 93.3148C59.0859 92.4974 56.8494 92.3068 54.3757 92.743C51.936 93.1732 49.7164 94.1495 47.7172 95.6719C45.7179 97.1943 44.1422 99.0894 42.9901 101.357C41.838 103.59 41.2619 105.98 41.2619 108.526C41.2619 111.073 41.838 113.259 42.9901 115.086C44.1761 116.873 45.7687 118.14 47.768 118.889C49.8011 119.631 52.0546 119.785 54.5282 119.348ZM133.777 62.123C134.049 61.5246 134.387 61.0692 134.794 60.7566C135.201 60.4441 135.692 60.237 136.268 60.1354L147.603 58.1368C149.026 57.8858 149.738 58.4657 149.738 59.8765V118.251C149.738 118.939 149.551 119.505 149.179 119.949C148.806 120.393 148.281 120.675 147.603 120.795L135.811 122.874C134.692 123.071 133.862 122.684 133.32 121.713L131.744 120.959C127.712 124.354 122.968 126.532 117.512 127.494C111.65 128.528 106.228 128.022 101.247 125.975C96.2658 123.894 92.3181 120.616 89.404 116.141C86.4898 111.665 85.0327 106.469 85.0327 100.55C85.0327 94.6664 86.4898 88.9901 89.404 83.5214C92.352 78.0123 96.3167 73.3735 101.298 69.6048C106.279 65.8362 111.684 63.438 117.512 62.4103C123.103 61.4244 127.915 61.9695 131.948 64.0456L133.777 62.123ZM117.868 108.18C120.342 107.744 122.578 106.799 124.577 105.345C126.611 103.886 128.203 102.056 129.355 99.8575C130.541 97.6183 131.134 95.2256 131.134 92.6793C131.134 90.1331 130.558 87.9465 129.406 86.1196C128.254 84.2582 126.678 82.9188 124.679 82.1014C122.68 81.2841 120.46 81.0905 118.021 81.5207C115.547 81.9569 113.31 82.9362 111.311 84.4586C109.312 85.9466 107.736 87.8244 106.584 90.0921C105.432 92.3598 104.856 94.7667 104.856 97.3129C104.856 99.8936 105.415 102.083 106.533 103.882C107.651 105.68 109.193 106.957 111.159 107.711C113.158 108.46 115.394 108.616 117.868 108.18ZM187.756 50.0245C193.584 48.9968 198.989 49.489 203.97 51.501C208.951 53.513 212.899 56.7567 215.813 61.2321C218.761 65.6671 220.235 70.8265 220.235 76.7104C220.235 82.6287 218.778 88.3394 215.864 93.8425C212.95 99.3456 209.002 104.016 204.021 107.853C199.04 111.656 193.618 114.075 187.756 115.108C183.113 115.927 178.979 115.83 175.353 114.818V132.057C175.353 132.745 175.167 133.311 174.794 133.755C174.421 134.199 173.896 134.481 173.218 134.601L157.665 137.343C156.987 137.463 156.462 137.366 156.089 137.053C155.716 136.741 155.53 136.24 155.53 135.552V58.8551C155.53 57.4444 156.242 56.6135 157.665 56.3626L169 54.364C170.118 54.1668 170.948 54.5365 171.49 55.4732L173.32 56.7505C177.353 53.2524 182.164 51.0104 187.756 50.0245ZM187.4 95.9195C189.873 95.4834 192.093 94.5415 194.058 93.0938C196.058 91.6402 197.616 89.817 198.735 87.6241C199.853 85.4313 200.412 83.0445 200.412 80.4638C200.412 77.9176 199.836 75.7138 198.684 73.8524C197.532 71.9911 195.956 70.6689 193.957 69.886C191.957 69.0686 189.721 68.878 187.247 69.3142C184.807 69.7444 182.588 70.7207 180.589 72.2431C178.589 73.7655 177.014 75.6606 175.862 77.9282C174.709 80.1615 174.133 82.5512 174.133 85.0975C174.133 87.6437 174.709 89.8303 175.862 91.6572C177.048 93.4438 178.64 94.7114 180.639 95.4599C182.673 96.2025 184.926 96.3557 187.4 95.9195ZM357.195 20.1478C361.397 19.4069 365.548 19.9137 369.648 21.6682C370.393 22.0872 370.766 22.6065 370.766 23.2258C370.766 23.6387 370.647 24.0553 370.41 24.4756L363.498 38.8558C363.091 39.7189 362.549 40.2102 361.871 40.3297C361.498 40.3955 361.092 40.3467 360.651 40.1835C358.415 39.3048 356.28 39.0446 354.247 39.4031C352.281 39.7497 350.401 40.6318 348.605 42.0496C346.843 43.4614 345.402 45.3841 344.284 47.8179C343.166 50.2172 342.607 53.034 342.607 56.2685V84.2426C342.607 84.9308 342.421 85.497 342.048 85.9412C341.675 86.3855 341.15 86.6673 340.472 86.7868L324.918 89.5293C324.241 89.6488 323.716 89.5522 323.343 89.2394C322.97 88.9267 322.784 88.4262 322.784 87.738V29.3638C322.784 27.9531 323.495 27.1222 324.918 26.8713L336.762 24.783C337.88 24.5858 338.71 24.9556 339.252 25.8922L342.302 30.1029C343.928 27.4419 345.995 25.271 348.503 23.5901C351.044 21.8688 353.942 20.7214 357.195 20.1478ZM42.2785 214.199C42.2785 215.644 41.5838 216.489 40.1945 216.734L24.7934 219.449C24.1157 219.569 23.5904 219.472 23.2177 219.16C22.8449 218.847 22.6586 218.346 22.6586 217.658V141.323C22.6586 140.635 22.8449 140.068 23.2177 139.624C23.5904 139.18 24.1157 138.898 24.7934 138.779L40.1945 136.063C41.5838 135.818 42.2785 136.418 42.2785 137.863V214.199ZM76.9263 211.857C70.8946 212.921 65.3543 212.452 60.3053 210.452C55.2902 208.412 51.3255 205.171 48.4113 200.73C45.4972 196.289 44.0401 191.11 44.0401 185.191C44.0401 179.17 45.4972 173.407 48.4113 167.904C51.3594 162.361 55.3579 157.682 60.4069 153.867C65.4559 150.052 71.0132 147.609 77.0788 146.54C83.1782 145.464 88.7525 145.944 93.8014 147.978C98.8843 150.007 102.9 153.273 105.848 157.777C108.796 162.246 110.27 167.492 110.27 173.513C110.27 179.431 108.779 185.131 105.797 190.612C102.849 196.086 98.8166 200.737 93.6998 204.564C88.6169 208.351 83.0257 210.782 76.9263 211.857ZM77.1296 192.621C79.6033 192.185 81.8567 191.203 83.8898 189.674C85.923 188.146 87.5156 186.265 88.6677 184.032C89.8537 181.758 90.4467 179.366 90.4467 176.854C90.4467 174.307 89.8537 172.124 88.6677 170.303C87.5156 168.441 85.923 167.105 83.8898 166.294C81.8567 165.482 79.6033 165.295 77.1296 165.731C74.6559 166.167 72.4025 167.149 70.3694 168.678C68.3701 170.2 66.7775 172.098 65.5915 174.372C64.4393 176.605 63.8633 178.995 63.8633 181.541C63.8633 184.053 64.4393 186.239 65.5915 188.101C66.7775 189.922 68.3701 191.241 70.3694 192.058C72.4025 192.87 74.6559 193.057 77.1296 192.621ZM140.823 200.59C134.791 201.654 129.251 201.186 124.202 199.186C119.187 197.145 115.222 193.904 112.308 189.463C109.394 185.022 107.937 179.843 107.937 173.925C107.937 167.903 109.394 162.141 112.308 156.638C115.256 151.094 119.255 146.415 124.304 142.6C129.353 138.785 134.91 136.343 140.976 135.273C147.075 134.198 152.649 134.677 157.698 136.712C162.781 138.74 166.797 142.006 169.745 146.51C172.693 150.979 174.167 156.225 174.167 162.246C174.167 168.165 172.676 173.864 169.694 179.345C166.746 184.819 162.713 189.47 157.597 193.297C152.514 197.084 146.923 199.515 140.823 200.59ZM141.026 181.354C143.5 180.918 145.753 179.936 147.787 178.408C149.82 176.879 151.412 174.998 152.565 172.765C153.751 170.492 154.344 168.099 154.344 165.587C154.344 163.041 153.751 160.857 152.565 159.036C151.412 157.175 149.82 155.838 147.787 155.027C145.753 154.216 143.5 154.028 141.026 154.464C138.553 154.9 136.299 155.883 134.266 157.411C132.267 158.933 130.674 160.831 129.488 163.105C128.336 165.338 127.76 167.728 127.76 170.274C127.76 172.786 128.336 174.973 129.488 176.834C130.674 178.655 132.267 179.974 134.266 180.792C136.299 181.603 138.553 181.791 141.026 181.354ZM250.364 115.366C255.04 114.541 259.09 114.928 262.512 116.527C265.969 118.119 268.629 120.954 270.492 125.029C272.39 129.065 273.339 134.265 273.339 140.631V173.456C273.339 174.902 272.627 175.75 271.204 176.001L255.65 178.743C254.973 178.863 254.447 178.766 254.075 178.453C253.702 178.141 253.516 177.64 253.516 176.952V144.745C253.516 141.305 252.77 138.752 251.279 137.088C249.788 135.424 247.602 134.846 244.722 135.354C242.825 135.689 241.147 136.449 239.69 137.635C238.233 138.821 237.064 140.266 236.183 141.969C235.302 143.639 234.76 145.369 234.556 147.159V180.295C234.556 180.983 234.37 181.549 233.997 181.993C233.625 182.438 233.099 182.72 232.422 182.839L216.868 185.582C215.445 185.833 214.733 185.235 214.733 183.79V151.584C214.733 148.143 213.988 145.591 212.497 143.927C211.006 142.263 208.82 141.684 205.94 142.192C203.907 142.551 202.111 143.418 200.552 144.794C198.993 146.17 197.79 147.827 196.943 149.766C196.096 151.67 195.672 153.603 195.672 155.564V187.151C195.672 187.839 195.486 188.406 195.113 188.85C194.74 189.294 194.215 189.576 193.538 189.695L177.984 192.438C177.306 192.557 176.781 192.461 176.408 192.148C176.035 191.835 175.849 191.335 175.849 190.647V132.272C175.849 130.862 176.561 130.031 177.984 129.78L189.827 127.692C190.437 127.584 190.928 127.618 191.301 127.793C191.708 127.962 192.047 128.298 192.318 128.801L193.944 130.837C199.129 126.241 204.991 123.366 211.531 122.213C215.36 121.538 218.783 121.657 221.798 122.57C224.848 123.478 227.406 125.194 229.473 127.72C235.166 120.936 242.13 116.818 250.364 115.366ZM311.877 166.661C311.877 168.106 311.165 168.954 309.742 169.205L292.612 172.226C291.189 172.477 290.478 171.88 290.478 170.434V155.105C290.478 153.66 291.189 152.812 292.612 152.561L309.742 149.541C311.165 149.29 311.877 149.887 311.877 151.332V166.661Z" fill="url(#paint0_radial_52_22)"/>
<path d="M71.0984 74.9298L79.4046 58.7051L79.4046 58.7051L71.0984 74.9298ZM82.9415 84.6609L68.542 95.8721L68.5768 95.9255L68.612 95.9786L82.9415 84.6609ZM82.9923 117.271L97.3919 123.404V123.404L82.9923 117.271ZM71.1492 131.282L79.5297 144.521L79.5665 144.493L79.6032 144.465L71.1492 131.282ZM42.4818 138.247L49.3342 121.528L25.7401 114.94V141.199L42.4818 138.247ZM38.6188 78.902L23.8467 89.5067L25.3208 92.0534L27.6944 93.7103L38.6188 78.902ZM40.4486 80.1794L29.5243 94.9877L39.2543 101.78L49.8691 92.5717L40.4486 80.1794ZM61.1868 116.523L53.205 102.987L53.152 103.025L53.0992 103.064L61.1868 116.523ZM65.863 111.053L80.4143 116.894L80.4144 116.894L65.863 111.053ZM65.8122 97.2813L80.3779 86.3317L80.3779 86.3317L65.8122 97.2813ZM61.0851 93.3148L52.726 109.518L52.819 109.556L52.9126 109.593L61.0851 93.3148ZM47.7172 95.6719L39.358 82.4165L39.358 82.4166L47.7172 95.6719ZM42.9901 101.357L57.4956 107.287L57.5259 107.229L57.5558 107.17L42.9901 101.357ZM42.9901 115.086L28.4845 126.132L28.5688 126.266L28.656 126.397L42.9901 115.086ZM47.768 118.889L39.7862 135.24L39.8377 135.259L39.8895 135.278L47.768 118.889ZM54.884 73.4534V90.4534C57.8475 89.9308 60.3824 90.1812 62.7922 91.1546L71.0984 74.9298L79.4046 58.7051C71.8519 55.6544 63.5773 54.9205 54.884 56.4534V73.4534ZM71.0984 74.9298L62.7922 91.1546C65.269 92.155 67.1125 93.6768 68.542 95.8721L82.9415 84.6609L97.3411 73.4497C92.9422 66.6942 86.8902 61.7286 79.4046 58.7051L71.0984 74.9298ZM82.9415 84.6609L68.612 95.9786C69.9549 97.9988 70.6219 100.253 70.6219 103.091L87.3636 100.139L104.105 97.1872C104.105 88.2581 101.824 80.193 97.271 73.3433L82.9415 84.6609ZM87.3636 100.139L70.6219 103.091C70.6219 106.023 69.9415 108.591 68.5928 111.138L82.9923 117.271L97.3919 123.404C101.872 114.945 104.105 106.092 104.105 97.1872L87.3636 100.139ZM82.9923 117.271L68.5928 111.138C67.1426 113.877 65.2517 116.13 62.6952 118.099L71.1492 131.282L79.6032 144.465C87.0092 138.759 93.0137 131.672 97.3919 123.404L82.9923 117.271ZM71.1492 131.282L62.7688 118.043C60.3847 119.863 57.8618 121.012 54.884 121.537V138.537V155.537C63.6308 153.995 71.9513 150.307 79.5297 144.521L71.1492 131.282ZM54.884 138.537V121.537C52.21 122.009 50.4725 121.845 49.3342 121.528L42.4818 138.247L35.6294 154.966C41.7427 156.672 48.2733 156.703 54.884 155.537V138.537ZM42.4818 138.247L25.7401 141.199V158.437L42.4818 155.485L59.2235 152.533V135.295L42.4818 138.247ZM42.4818 155.485L25.7401 158.437C25.7401 155.964 26.4895 151.535 30.0845 147.251L41.9227 157.184L53.7609 167.117C58.1014 161.945 59.2235 156.383 59.2235 152.533L42.4818 155.485ZM41.9227 157.184L30.0845 147.251C33.6795 142.966 37.9116 141.459 40.347 141.03V158.03V175.03C44.1378 174.361 49.4204 172.29 53.7609 167.117L41.9227 157.184ZM40.347 158.03V141.03L24.7934 143.772V160.772V177.772L40.347 175.03V158.03ZM24.7934 160.772V143.772C27.2288 143.343 31.4609 143.357 35.0559 146.374L23.2177 160.482L11.3795 174.59C15.72 178.232 21.0026 178.44 24.7934 177.772V160.772ZM23.2177 160.482L35.0559 146.374C38.6509 149.391 39.4003 153.556 39.4003 156.029L22.6586 158.981L5.91684 161.933C5.91684 165.782 7.03899 170.948 11.3795 174.59L23.2177 160.482ZM22.6586 158.981L39.4003 156.029V79.332L22.6586 82.284L5.91684 85.236V161.933L22.6586 158.981ZM22.6586 82.284L39.4003 79.332C39.4003 81.3523 38.8654 86.0604 34.887 90.7054C30.9834 95.2632 26.5625 96.4795 24.7934 96.7914V79.7914V62.7914C21.601 63.3543 16.1128 65.1115 11.4975 70.5001C6.80759 75.976 5.91684 81.8049 5.91684 85.236L22.6586 82.284ZM24.7934 79.7914V96.7914L36.1282 94.7928V77.7928V60.7928L24.7934 62.7914V79.7914ZM36.1282 77.7928V94.7928C34.07 95.1557 31.4363 95.1149 28.8478 93.9621C26.2861 92.8212 24.7201 91.0156 23.8467 89.5067L38.6188 78.902L53.3909 68.2973C51.9753 65.8517 49.7232 63.393 46.3313 61.8823C42.9125 60.3597 39.3046 60.2327 36.1282 60.7928V77.7928ZM38.6188 78.902L27.6944 93.7103L29.5243 94.9877L40.4486 80.1794L51.373 65.371L49.5432 64.0937L38.6188 78.902ZM40.4486 80.1794L49.8691 92.5717C50.7324 91.8227 52.1463 90.9361 54.884 90.4534V73.4534V56.4534C46.4394 57.9424 38.2298 61.5398 31.0282 67.7871L40.4486 80.1794ZM54.5282 119.348V136.348C59.5353 135.465 64.5862 133.435 69.2743 129.981L61.1868 116.523L53.0992 103.064C53.4344 102.817 53.7746 102.629 54.0753 102.501C54.3682 102.377 54.536 102.347 54.5282 102.348V119.348ZM61.1868 116.523L69.1686 130.059C73.8988 126.62 77.7407 122.137 80.4143 116.894L65.863 111.053L51.3117 105.212C51.4954 104.852 51.7714 104.418 52.1479 103.977C52.5239 103.537 52.9003 103.208 53.205 102.987L61.1868 116.523ZM65.863 111.053L80.4144 116.894C83.1393 111.55 84.2821 106.097 84.2821 100.941L67.5404 103.893L50.7987 106.845C50.7987 106.884 50.7951 106.718 50.872 106.389C50.9514 106.05 51.0931 105.641 51.3117 105.212L65.863 111.053ZM67.5404 103.893L84.2821 100.941C84.2821 95.6782 83.0602 90.6653 80.3779 86.3317L65.8122 97.2813L51.2465 108.231C51.085 107.97 50.959 107.672 50.8808 107.372C50.8042 107.079 50.7987 106.883 50.7987 106.845L67.5404 103.893ZM65.8122 97.2813L80.3779 86.3317C77.7482 82.0832 73.9854 78.8884 69.2577 77.0369L61.0851 93.3148L52.9126 109.593C52.6065 109.473 52.2592 109.28 51.9282 109.002C51.5988 108.725 51.3778 108.443 51.2465 108.231L65.8122 97.2813ZM61.0851 93.3148L69.4443 77.1115C64.7198 75.18 59.565 74.828 54.3757 75.743V92.743V109.743C54.3034 109.756 54.0715 109.787 53.7324 109.758C53.3868 109.728 53.0384 109.646 52.726 109.518L61.0851 93.3148ZM54.3757 92.743V75.743C49.1764 76.6598 44.0468 78.8461 39.358 82.4165L47.7172 95.6719L56.0763 108.927C55.7823 109.151 55.441 109.355 55.0871 109.511C54.7385 109.664 54.4844 109.724 54.3757 109.743V92.743ZM47.7172 95.6719L39.358 82.4166C34.7344 85.9374 31.0304 90.4148 28.4244 95.5442L42.9901 101.357L57.5558 107.17C57.4345 107.409 57.233 107.737 56.9373 108.093C56.6406 108.45 56.3351 108.73 56.0763 108.927L47.7172 95.6719ZM42.9901 101.357L28.4845 95.4267C25.7418 100.743 24.5202 106.219 24.5202 111.478L41.2619 108.526L58.0036 105.574C58.0036 105.611 57.9983 105.825 57.9141 106.175C57.8279 106.532 57.6862 106.918 57.4956 107.287L42.9901 101.357ZM41.2619 108.526L24.5202 111.478C24.5202 116.738 25.7418 121.783 28.4845 126.132L42.9901 115.086L57.4956 104.04C57.6862 104.342 57.8279 104.678 57.9141 105.005C57.9983 105.325 58.0036 105.537 58.0036 105.574L41.2619 108.526ZM42.9901 115.086L28.656 126.397C31.3667 130.48 35.1418 133.501 39.7862 135.24L47.768 118.889L55.7498 102.538C56.0189 102.639 56.3383 102.806 56.6522 103.056C56.9654 103.305 57.1858 103.567 57.3241 103.775L42.9901 115.086ZM47.768 118.889L39.8895 135.278C44.5242 136.971 49.5141 137.232 54.5282 136.348V119.348V102.348C54.5224 102.349 54.6604 102.325 54.8992 102.342C55.1435 102.358 55.404 102.411 55.6465 102.5L47.768 118.889ZM133.777 62.123L144.702 73.0788L147.249 70.4028L148.752 67.0852L133.777 62.123ZM149.179 119.949L161.017 129.883L161.017 129.883L149.179 119.949ZM133.32 121.713L148.197 111.293L146.149 107.625L142.396 105.828L133.32 121.713ZM131.744 120.959L140.82 105.073L131.672 100.693L122.567 108.359L131.744 120.959ZM101.247 125.975L92.7931 142.139L92.8298 142.154L92.8666 142.17L101.247 125.975ZM89.404 116.141L103.804 104.93L89.404 116.141ZM89.404 83.5214L75.048 77.3063L75.0392 77.3228L75.0305 77.3393L89.404 83.5214ZM131.948 64.0456L122.527 79.76L133.142 85.225L142.872 75.0014L131.948 64.0456ZM124.577 105.345L116.699 91.7344L116.647 91.7715L116.596 91.8091L124.577 105.345ZM129.355 99.8575L114.957 93.723L114.934 93.765L114.912 93.807L129.355 99.8575ZM129.406 86.1196L114.841 97.0691L114.87 97.1174L114.901 97.1653L129.406 86.1196ZM124.679 82.1014L133.038 65.8982L133.038 65.8982L124.679 82.1014ZM111.311 84.4586L119.484 97.8544L119.577 97.7847L119.67 97.714L111.311 84.4586ZM106.584 90.0921L92.0184 84.2792L92.0184 84.2792L106.584 90.0921ZM106.533 103.882L91.9819 114.854L91.982 114.854L106.533 103.882ZM111.159 107.711L103.071 124.022L103.124 124.042L103.177 124.062L111.159 107.711ZM133.777 62.123L148.752 67.0852C147.982 68.7844 146.34 71.5627 143.23 73.9534L134.794 60.7566L126.358 47.5598C122.435 50.5756 120.115 54.2648 118.803 57.1608L133.777 62.123ZM134.794 60.7566L143.23 73.9534C140.56 76.0053 137.996 76.8307 136.268 77.1354V60.1354V43.1354C133.388 43.6432 129.841 44.8828 126.358 47.5598L134.794 60.7566ZM136.268 60.1354V77.1354L147.603 75.1368V58.1368V41.1368L136.268 43.1354V60.1354ZM147.603 58.1368V75.1368C145.834 75.4487 141.413 75.7915 137.509 72.6104C133.531 69.3683 132.996 64.8489 132.996 62.8285L149.738 59.8765L166.479 56.9245C166.479 53.4934 165.589 47.9786 160.899 44.1566C156.284 40.3956 150.795 40.5739 147.603 41.1368V58.1368ZM149.738 59.8765L132.996 62.8285V121.203L149.738 118.251L166.479 115.299V56.9245L149.738 59.8765ZM149.738 118.251L132.996 121.203C132.996 118.73 133.745 114.3 137.34 110.016L149.179 119.949L161.017 129.883C165.357 124.71 166.479 119.148 166.479 115.299L149.738 118.251ZM149.179 119.949L137.34 110.016C140.935 105.731 145.168 104.224 147.603 103.795V120.795V137.795C151.394 137.126 156.676 135.056 161.017 129.883L149.179 119.949ZM147.603 120.795V103.795L135.811 105.874V122.874V139.874L147.603 137.795V120.795ZM135.811 122.874V105.874C137.971 105.493 140.681 105.567 143.3 106.787C145.867 107.984 147.381 109.831 148.197 111.293L133.32 121.713L118.443 132.133C119.801 134.566 122.001 137.093 125.398 138.676C128.848 140.284 132.532 140.452 135.811 139.874V122.874ZM133.32 121.713L142.396 105.828L140.82 105.073L131.744 120.959L122.668 136.844L124.244 137.599L133.32 121.713ZM131.744 120.959L122.567 108.359C121.609 109.165 120.149 110.029 117.512 110.494V127.494V144.494C125.786 143.035 133.815 139.542 140.922 133.559L131.744 120.959ZM117.512 127.494V110.494C114.535 111.019 112.012 110.76 109.628 109.781L101.247 125.975L92.8666 142.17C100.445 145.283 108.766 146.036 117.512 144.494V127.494ZM101.247 125.975L109.701 109.811C107.145 108.743 105.254 107.157 103.804 104.93L89.404 116.141L75.0044 127.352C79.3826 134.076 85.3871 139.045 92.7931 142.139L101.247 125.975ZM89.404 116.141L103.804 104.93C102.455 102.858 101.774 100.53 101.774 97.5982L85.0327 100.55L68.291 103.502C68.291 112.407 70.5248 120.472 75.0044 127.352L89.404 116.141ZM85.0327 100.55L101.774 97.5982C101.774 94.7207 102.445 92.2047 103.777 89.7036L89.404 83.5214L75.0305 77.3393C70.5349 85.7755 68.291 94.6121 68.291 103.502L85.0327 100.55ZM89.404 83.5214L103.76 89.7365C105.23 86.989 107.11 84.7871 109.604 82.9004L101.298 69.6048L92.9917 56.3093C85.5231 61.9599 79.4739 69.0357 75.048 77.3063L89.404 83.5214ZM101.298 69.6048L109.604 82.9004C112.014 81.0772 114.549 79.9329 117.512 79.4103V62.4103V45.4103C108.819 46.9432 100.544 50.5952 92.9917 56.3093L101.298 69.6048ZM117.512 62.4103V79.4103C120.25 78.9276 121.664 79.3156 122.527 79.76L131.948 64.0456L141.368 48.3312C134.167 44.6235 125.957 43.9213 117.512 45.4103V62.4103ZM131.948 64.0456L142.872 75.0014L144.702 73.0788L133.777 62.123L122.853 51.1672L121.023 53.0898L131.948 64.0456ZM117.868 108.18V125.18C122.879 124.296 127.899 122.27 132.559 118.881L124.577 105.345L116.596 91.8091C116.884 91.5994 117.184 91.4332 117.456 91.3181C117.722 91.2058 117.875 91.1787 117.868 91.1798V108.18ZM124.577 105.345L132.456 118.956C137.185 115.561 141.064 111.127 143.798 105.908L129.355 99.8575L114.912 93.807C115.093 93.4624 115.36 93.0526 115.719 92.6409C116.076 92.2303 116.427 91.9298 116.699 91.7344L124.577 105.345ZM129.355 99.8575L143.754 105.992C146.594 100.63 147.876 95.0771 147.876 89.7273L131.134 92.6793L114.393 95.6314C114.393 95.5547 114.403 95.2999 114.499 94.912C114.597 94.516 114.755 94.1044 114.957 93.723L129.355 99.8575ZM131.134 92.6793L147.876 89.7273C147.876 84.4679 146.654 79.423 143.912 75.0738L129.406 86.1196L114.901 97.1653C114.71 96.8632 114.568 96.5273 114.482 96.2002C114.398 95.8806 114.393 95.6683 114.393 95.6314L131.134 92.6793ZM129.406 86.1196L143.972 75.17C141.366 70.9597 137.662 67.7885 133.038 65.8982L124.679 82.1014L116.32 98.3047C116.061 98.1989 115.756 98.0261 115.459 97.7739C115.163 97.5225 114.962 97.265 114.841 97.0691L129.406 86.1196ZM124.679 82.1014L133.038 65.8982C128.35 63.9813 123.22 63.6039 118.021 64.5207V81.5207V98.5207C117.912 98.5399 117.658 98.5701 117.309 98.5397C116.955 98.5088 116.614 98.4249 116.32 98.3047L124.679 82.1014ZM118.021 81.5207V64.5207C112.831 65.4357 107.677 67.6056 102.952 71.2032L111.311 84.4586L119.67 97.714C119.358 97.9518 119.01 98.1573 118.664 98.3086C118.325 98.4571 118.093 98.5079 118.021 98.5207V81.5207ZM111.311 84.4586L103.139 71.0627C98.4109 74.5815 94.6481 79.1033 92.0184 84.2792L106.584 90.0921L121.15 95.905C121.019 96.1633 120.798 96.5238 120.468 96.9164C120.137 97.3109 119.79 97.6266 119.484 97.8544L111.311 84.4586ZM106.584 90.0921L92.0184 84.2792C89.3361 89.5586 88.1142 95.0025 88.1142 100.265L104.856 97.3129L121.598 94.3609C121.598 94.3989 121.592 94.5976 121.515 94.9177C121.437 95.2444 121.311 95.5871 121.15 95.905L106.584 90.0921ZM104.856 97.3129L88.1142 100.265C88.1142 105.421 89.257 110.472 91.9819 114.854L106.533 103.882L121.085 92.909C121.303 93.2606 121.445 93.6206 121.524 93.9316C121.601 94.2328 121.598 94.4003 121.598 94.3609L104.856 97.3129ZM106.533 103.882L91.982 114.854C94.6139 119.088 98.3835 122.223 103.071 124.022L111.159 107.711L119.246 91.4004C119.565 91.5229 119.938 91.7247 120.301 92.0251C120.663 92.325 120.92 92.644 121.085 92.909L106.533 103.882ZM111.159 107.711L103.177 124.062C107.838 125.807 112.857 126.063 117.868 125.18V108.18V91.1798C117.861 91.181 118.014 91.1543 118.28 91.1729C118.552 91.1919 118.852 91.2523 119.141 91.3603L111.159 107.711ZM203.97 51.501L212.276 35.2762V35.2762L203.97 51.501ZM215.813 61.2321L201.413 72.4433L201.448 72.4967L201.484 72.5497L215.813 61.2321ZM215.864 93.8425L230.263 99.9756V99.9756L215.864 93.8425ZM204.021 107.853L212.401 121.092L212.438 121.064L212.475 121.036L204.021 107.853ZM175.353 114.818L182.206 98.0988L158.612 91.5115V117.77L175.353 114.818ZM171.49 55.4732L156.718 66.0779L158.192 68.6245L160.566 70.2815L171.49 55.4732ZM173.32 56.7505L162.396 71.5589L172.126 78.3511L182.741 69.1428L173.32 56.7505ZM194.058 93.0938L186.076 79.5577L186.023 79.5962L185.971 79.6351L194.058 93.0938ZM198.735 87.6241L213.286 93.4653L213.286 93.4652L198.735 87.6241ZM198.684 73.8524L213.249 62.9029L213.249 62.9029L198.684 73.8524ZM193.957 69.886L185.598 86.0892L185.69 86.1272L185.784 86.1639L193.957 69.886ZM180.589 72.2431L172.23 58.9877L172.23 58.9877L180.589 72.2431ZM175.862 77.9282L190.367 83.8586L190.397 83.7999L190.427 83.7411L175.862 77.9282ZM175.862 91.6572L161.356 102.703L161.44 102.837L161.528 102.968L175.862 91.6572ZM180.639 95.4599L172.658 111.811L172.709 111.83L172.761 111.849L180.639 95.4599ZM187.756 50.0245V67.0245C190.719 66.502 193.254 66.7524 195.664 67.7257L203.97 51.501L212.276 35.2762C204.723 32.2256 196.449 31.4917 187.756 33.0245V50.0245ZM203.97 51.501L195.664 67.7257C198.141 68.7262 199.984 70.248 201.413 72.4433L215.813 61.2321L230.213 50.0209C225.814 43.2654 219.762 38.2998 212.276 35.2762L203.97 51.501ZM215.813 61.2321L201.484 72.5497C202.826 74.57 203.493 76.8238 203.493 79.6624L220.235 76.7104L236.977 73.7584C236.977 64.8293 234.696 56.7642 230.143 49.9144L215.813 61.2321ZM220.235 76.7104L203.493 79.6624C203.493 82.5939 202.813 85.1624 201.464 87.7093L215.864 93.8425L230.263 99.9756C234.743 91.5163 236.977 82.6635 236.977 73.7584L220.235 76.7104ZM215.864 93.8425L201.464 87.7093C200.014 90.4479 198.123 92.7012 195.567 94.6706L204.021 107.853L212.475 121.036C219.881 115.331 225.885 108.243 230.263 99.9756L215.864 93.8425ZM204.021 107.853L195.64 94.6142C193.256 96.4344 190.733 97.5834 187.756 98.1084V115.108V132.108C196.502 130.566 204.823 126.878 212.401 121.092L204.021 107.853ZM187.756 115.108V98.1084C185.081 98.5799 183.344 98.4166 182.206 98.0988L175.353 114.818L168.501 131.537C174.614 133.244 181.145 133.274 187.756 132.108V115.108ZM175.353 114.818L158.612 117.77V135.009L175.353 132.057L192.095 129.105V111.866L175.353 114.818ZM175.353 132.057L158.612 135.009C158.612 132.536 159.361 128.106 162.956 123.822L174.794 133.755L186.632 143.689C190.973 138.516 192.095 132.954 192.095 129.105L175.353 132.057ZM174.794 133.755L162.956 123.822C166.551 119.537 170.783 118.03 173.218 117.601V134.601V151.601C177.009 150.932 182.292 148.861 186.632 143.689L174.794 133.755ZM173.218 134.601V117.601L157.665 120.343V137.343V154.343L173.218 151.601V134.601ZM157.665 137.343V120.343C160.1 119.914 164.332 119.929 167.927 122.945L156.089 137.053L144.251 151.162C148.591 154.804 153.874 155.012 157.665 154.343V137.343ZM156.089 137.053L167.927 122.945C171.522 125.962 172.272 130.127 172.272 132.6L155.53 135.552L138.788 138.504C138.788 142.353 139.91 147.519 144.251 151.162L156.089 137.053ZM155.53 135.552L172.272 132.6V55.9031L155.53 58.8551L138.788 61.8072V138.504L155.53 135.552ZM155.53 58.8551L172.272 55.9031C172.272 57.9235 171.737 62.6316 167.758 67.2766C163.855 71.8344 159.434 73.0506 157.665 73.3626V56.3626V39.3626C154.473 39.9255 148.984 41.6826 144.369 47.0713C139.679 52.5472 138.788 58.376 138.788 61.8072L155.53 58.8551ZM157.665 56.3626V73.3626L169 71.364V54.364V37.364L157.665 39.3626V56.3626ZM169 54.364V71.364C166.942 71.7269 164.308 71.6861 161.719 70.5333C159.158 69.3924 157.592 67.5868 156.718 66.0779L171.49 55.4732L186.262 44.8685C184.847 42.4229 182.595 39.9641 179.203 38.4535C175.784 36.9309 172.176 36.8039 169 37.364V54.364ZM171.49 55.4732L160.566 70.2815L162.396 71.5589L173.32 56.7505L184.245 41.9422L182.415 40.6649L171.49 55.4732ZM173.32 56.7505L182.741 69.1428C183.604 68.3939 185.018 67.5073 187.756 67.0245V50.0245V33.0245C179.311 34.5135 171.101 38.1109 163.9 44.3583L173.32 56.7505ZM187.4 95.9195V112.92C192.407 112.037 197.458 110.006 202.146 106.553L194.058 93.0938L185.971 79.6351C186.306 79.3882 186.646 79.1997 186.947 79.0721C187.24 78.9478 187.407 78.9182 187.4 78.9195V95.9195ZM194.058 93.0938L202.04 106.63C206.77 103.191 210.612 98.7083 213.286 93.4653L198.735 87.6241L184.183 81.783C184.367 81.4228 184.643 80.9888 185.019 80.5484C185.395 80.1085 185.772 79.7792 186.076 79.5577L194.058 93.0938ZM198.735 87.6241L213.286 93.4652C216.011 88.1216 217.154 82.6678 217.154 77.5118L200.412 80.4639L183.67 83.4159C183.67 83.4552 183.667 83.289 183.744 82.9606C183.823 82.6217 183.965 82.2117 184.183 81.783L198.735 87.6241ZM200.412 80.4639L217.154 77.5118C217.154 72.2494 215.932 67.2364 213.249 62.9029L198.684 73.8524L184.118 84.802C183.957 84.541 183.831 84.2428 183.752 83.9436C183.676 83.6506 183.67 83.4538 183.67 83.4159L200.412 80.4639ZM198.684 73.8524L213.249 62.9029C210.62 58.6544 206.857 55.4595 202.129 53.608L193.957 69.886L185.784 86.1639C185.478 86.044 185.131 85.8507 184.8 85.573C184.47 85.2966 184.249 85.014 184.118 84.802L198.684 73.8524ZM193.957 69.886L202.316 53.6827C197.591 51.7512 192.436 51.3992 187.247 52.3142V69.3142V86.3142C187.175 86.3269 186.943 86.3579 186.604 86.329C186.258 86.2995 185.91 86.2169 185.598 86.0892L193.957 69.886ZM187.247 69.3142V52.3142C182.048 53.2309 176.918 55.4173 172.23 58.9877L180.589 72.2431L188.948 85.4985C188.654 85.7223 188.312 85.9266 187.959 86.0823C187.61 86.2356 187.356 86.295 187.247 86.3142V69.3142ZM180.589 72.2431L172.23 58.9877C167.606 62.5086 163.902 66.986 161.296 72.1153L175.862 77.9282L190.427 83.7411C190.306 83.9798 190.105 84.3083 189.809 84.664C189.512 85.0209 189.207 85.3014 188.948 85.4985L180.589 72.2431ZM175.862 77.9282L161.356 71.9979C158.613 77.3144 157.392 82.79 157.392 88.0495L174.133 85.0975L190.875 82.1454C190.875 82.1824 190.87 82.3966 190.786 82.7459C190.699 83.1033 190.558 83.4892 190.367 83.8586L175.862 77.9282ZM174.133 85.0975L157.392 88.0495C157.392 93.3089 158.613 98.3538 161.356 102.703L175.862 91.6572L190.367 80.6115C190.558 80.9136 190.699 81.2495 190.786 81.5766C190.87 81.8962 190.875 82.1085 190.875 82.1454L174.133 85.0975ZM175.862 91.6572L161.528 102.968C164.238 107.051 168.013 110.072 172.658 111.811L180.639 95.4599L188.621 79.109C188.89 79.2097 189.21 79.3773 189.524 79.6271C189.837 79.8763 190.057 80.138 190.196 80.3465L175.862 91.6572ZM180.639 95.4599L172.761 111.849C177.396 113.542 182.386 113.804 187.4 112.92V95.9195V78.9195C187.394 78.9206 187.532 78.8966 187.771 78.9129C188.015 78.9295 188.276 78.9822 188.518 79.0707L180.639 95.4599ZM369.648 21.6682L379.495 6.18334L378.871 5.83285L378.209 5.54937L369.648 21.6682ZM370.41 24.4756L356.286 17.8393L355.941 18.4509L355.638 19.0804L370.41 24.4756ZM363.498 38.8558L348.725 33.4606L348.69 33.5349L348.655 33.6094L363.498 38.8558ZM360.651 40.1835L352.464 56.4559L352.589 56.5047L352.714 56.5511L360.651 40.1835ZM348.605 42.0496L339.951 29.0223L339.891 29.0702L339.83 29.1185L348.605 42.0496ZM344.284 47.8179L359.164 52.985L359.188 52.9333L359.212 52.8814L344.284 47.8179ZM323.343 89.2394L311.505 103.348L323.343 89.2394ZM339.252 25.8922L324.48 36.4969L324.827 37.0958L325.229 37.6514L339.252 25.8922ZM342.302 30.1029L328.279 41.8621L341.854 60.6047L356.045 37.3876L342.302 30.1029ZM348.503 23.5901L355.827 37.5857L355.869 37.5578L355.91 37.5298L348.503 23.5901ZM357.195 20.1478V37.1478C357.992 37.0073 359.218 36.9874 361.087 37.7869L369.648 21.6682L378.209 5.54937C371.877 2.84002 364.801 1.80659 357.195 3.14783V20.1478ZM369.648 21.6682L359.801 37.153C358.516 36.4305 354.024 33.3541 354.024 26.1778L370.766 23.2258L387.508 20.2738C387.508 11.8588 382.271 7.74398 379.495 6.18334L369.648 21.6682ZM370.766 23.2258L354.024 26.1778C354.024 23.0784 354.968 20.1754 356.286 17.8393L370.41 24.4756L384.535 31.112C386.327 27.9353 387.508 24.199 387.508 20.2738L370.766 23.2258ZM370.41 24.4756L355.638 19.0804L348.725 33.4606L363.498 38.8558L378.27 44.2511L385.182 29.8709L370.41 24.4756ZM363.498 38.8558L348.655 33.6094C349.293 32.2535 350.598 29.9805 353.015 27.7903C355.636 25.4147 358.76 23.8783 361.871 23.3297V40.3297V57.3297C370.695 55.7739 376.053 48.9568 378.341 44.1022L363.498 38.8558ZM361.871 40.3297V23.3297C365.054 22.7684 367.39 23.3721 368.588 23.816L360.651 40.1835L352.714 56.5511C354.793 57.3213 357.942 58.0225 361.871 57.3297V40.3297ZM360.651 40.1835L368.838 23.9112C364.742 22.3019 359.802 21.4236 354.247 22.4031V39.4031V56.4031C352.758 56.6657 352.087 56.3076 352.464 56.4559L360.651 40.1835ZM354.247 39.4031V22.4031C349.024 23.324 344.175 25.6879 339.951 29.0223L348.605 42.0496L357.258 55.0769C356.99 55.2886 356.566 55.5759 356 55.8417C355.426 56.1107 354.826 56.3009 354.247 56.4031V39.4031ZM348.605 42.0496L339.83 29.1185C334.971 33.0121 331.598 37.875 329.356 42.7543L344.284 47.8179L359.212 52.8814C359.22 52.8641 359.105 53.12 358.794 53.5342C358.473 53.9636 358.003 54.481 357.379 54.9806L348.605 42.0496ZM344.284 47.8179L329.404 42.6507C326.747 48.3525 325.865 54.0745 325.865 59.2205L342.607 56.2685L359.349 53.3164C359.349 52.6811 359.405 52.365 359.414 52.316C359.422 52.2781 359.375 52.5333 359.164 52.985L344.284 47.8179ZM342.607 56.2685L325.865 59.2205V87.1947L342.607 84.2426L359.349 81.2906V53.3164L342.607 56.2685ZM342.607 84.2426L325.865 87.1947C325.865 84.7217 326.615 80.2922 330.21 76.0078L342.048 85.9412L353.886 95.8746C358.226 90.7018 359.349 85.1399 359.349 81.2906L342.607 84.2426ZM342.048 85.9412L330.21 76.0078C333.805 71.7234 338.037 70.2162 340.472 69.7868V86.7868V103.787C344.263 103.118 349.545 101.047 353.886 95.8746L342.048 85.9412ZM340.472 86.7868V69.7868L324.918 72.5293V89.5293V106.529L340.472 103.787V86.7868ZM324.918 89.5293V72.5293C327.354 72.0999 331.586 72.1146 335.181 75.1312L323.343 89.2394L311.505 103.348C315.845 106.99 321.128 107.198 324.918 106.529V89.5293ZM323.343 89.2394L335.181 75.1312C338.776 78.1478 339.525 82.313 339.525 84.786L322.784 87.738L306.042 90.69C306.042 94.5393 307.164 99.7055 311.505 103.348L323.343 89.2394ZM322.784 87.738L339.525 84.786V26.4118L322.784 29.3638L306.042 32.3158V90.69L322.784 87.738ZM322.784 29.3638L339.525 26.4118C339.525 28.4322 338.99 33.1402 335.012 37.7853C331.108 42.3431 326.688 43.5593 324.918 43.8713V26.8713V9.87126C321.726 10.4342 316.238 12.1913 311.623 17.58C306.933 23.0559 306.042 28.8847 306.042 32.3158L322.784 29.3638ZM324.918 26.8713V43.8713L336.762 41.783V24.783V7.78301L324.918 9.87126V26.8713ZM336.762 24.783V41.783C334.703 42.1459 332.07 42.1052 329.481 40.9523C326.919 39.8114 325.353 38.0059 324.48 36.4969L339.252 25.8922L354.024 15.2875C352.609 12.8419 350.357 10.3832 346.965 8.87256C343.546 7.34996 339.938 7.22292 336.762 7.78301V24.783ZM339.252 25.8922L325.229 37.6514L328.279 41.8621L342.302 30.1029L356.325 18.3437L353.275 14.133L339.252 25.8922ZM342.302 30.1029L356.045 37.3876C356.07 37.3469 356.078 37.3384 356.066 37.3539C356.054 37.3698 356.03 37.4 355.993 37.4382C355.957 37.4765 355.919 37.5119 355.884 37.5415C355.867 37.5557 355.853 37.5667 355.842 37.5745C355.832 37.5823 355.827 37.5859 355.827 37.5857L348.503 23.5901L341.179 9.59451C336.04 13.0392 331.783 17.5423 328.559 22.8181L342.302 30.1029ZM348.503 23.5901L355.91 37.5298C355.897 37.5388 355.952 37.4976 356.123 37.4298C356.301 37.359 356.644 37.2449 357.195 37.1478V20.1478V3.14783C351.754 4.10724 346.26 6.15305 341.096 9.65043L348.503 23.5901ZM23.2177 219.16L11.3795 233.268L23.2177 219.16ZM42.2785 214.199L25.5368 217.151C25.5368 215.354 25.9668 210.789 29.7775 206.154C33.6612 201.429 38.2048 200.085 40.1945 199.734V216.734V233.734C43.5735 233.138 49.1591 231.249 53.7374 225.679C58.2428 220.198 59.0202 214.488 59.0202 211.247L42.2785 214.199ZM40.1945 216.734V199.734L24.7934 202.449V219.449V236.449L40.1945 233.734V216.734ZM24.7934 219.449V202.449C27.2288 202.02 31.4609 202.035 35.0559 205.051L23.2177 219.16L11.3795 233.268C15.72 236.91 21.0026 237.118 24.7934 236.449V219.449ZM23.2177 219.16L35.0559 205.051C38.6509 208.068 39.4003 212.233 39.4003 214.706L22.6586 217.658L5.91684 220.61C5.91684 224.459 7.03899 229.626 11.3795 233.268L23.2177 219.16ZM22.6586 217.658L39.4003 214.706V138.371L22.6586 141.323L5.91684 144.275V220.61L22.6586 217.658ZM22.6586 141.323L39.4003 138.371C39.4003 140.844 38.6509 145.273 35.0559 149.558L23.2177 139.624L11.3795 129.691C7.03898 134.864 5.91684 140.425 5.91684 144.275L22.6586 141.323ZM23.2177 139.624L35.0559 149.558C31.4609 153.842 27.2288 155.349 24.7934 155.779V138.779V121.779C21.0026 122.447 15.72 124.518 11.3795 129.691L23.2177 139.624ZM24.7934 138.779V155.779L40.1945 153.063V136.063V119.063L24.7934 121.779V138.779ZM40.1945 136.063V153.063C38.2048 153.414 33.6612 153.672 29.7775 150.317C25.9668 147.025 25.5368 142.612 25.5368 140.815L42.2785 137.863L59.0202 134.911C59.0202 131.67 58.2428 126.234 53.7374 122.342C49.1591 118.387 43.5735 118.467 40.1945 119.063V136.063ZM42.2785 137.863L25.5368 140.815V217.151L42.2785 214.199L59.0202 211.247V134.911L42.2785 137.863ZM60.3053 210.452L51.9674 226.664L52.0253 226.688L52.0835 226.711L60.3053 210.452ZM48.4113 200.73L62.7848 189.479L48.4113 200.73ZM48.4113 167.904L34.0294 161.738L34.0206 161.755L34.0118 161.771L48.4113 167.904ZM93.8014 147.978L85.5057 164.207L85.5266 164.216L85.5476 164.224L93.8014 147.978ZM105.848 157.777L91.4659 169.015L91.4789 169.035L91.492 169.055L105.848 157.777ZM105.797 190.612L91.5116 184.266L91.4895 184.306L91.4675 184.347L105.797 190.612ZM93.6998 204.564L101.88 217.954L101.896 217.942L101.912 217.93L93.6998 204.564ZM88.6677 184.032L74.2066 178.016L74.1843 178.059L74.1622 178.102L88.6677 184.032ZM88.6677 170.303L74.1021 181.252L74.1841 181.385L74.2689 181.515L88.6677 170.303ZM83.8898 166.294L92.1437 150.048L92.1437 150.048L83.8898 166.294ZM70.3694 168.678L62.1155 155.343L62.0628 155.382L62.0102 155.422L70.3694 168.678ZM65.5915 174.372L51.1303 168.356L51.108 168.399L51.0859 168.441L65.5915 174.372ZM65.5915 188.101L51.0258 199.05L51.1078 199.183L51.1927 199.313L65.5915 188.101ZM70.3694 192.058L62.0102 208.262L62.0628 208.283L62.1155 208.304L70.3694 192.058ZM76.9263 211.857V194.857C73.6533 195.434 70.9627 195.159 68.527 194.194L60.3053 210.452L52.0835 226.711C59.7459 229.746 68.1359 230.407 76.9263 228.857V211.857ZM60.3053 210.452L68.6432 194.24C66.0692 193.193 64.2018 191.638 62.7848 189.479L48.4113 200.73L34.0378 211.981C38.4493 218.704 44.5111 223.631 51.9674 226.664L60.3053 210.452ZM48.4113 200.73L62.7848 189.479C61.4615 187.462 60.7818 185.17 60.7818 182.239L44.0401 185.191L27.2983 188.143C27.2983 197.049 29.5328 205.116 34.0378 211.981L48.4113 200.73ZM44.0401 185.191L60.7818 182.239C60.7818 179.148 61.4897 176.532 62.8109 174.038L48.4113 167.904L34.0118 161.771C29.5046 170.283 27.2983 179.191 27.2983 188.143L44.0401 185.191ZM48.4113 167.904L62.7933 174.071C64.2476 171.336 66.1393 169.107 68.7026 167.17L60.4069 153.867L52.1112 140.563C44.5766 146.256 38.4712 153.386 34.0294 161.738L48.4113 167.904ZM60.4069 153.867L68.7026 167.17C71.1125 165.349 73.7909 164.12 77.0788 163.54V146.54V129.54C68.2355 131.099 59.7993 134.754 52.1112 140.563L60.4069 153.867ZM77.0788 146.54V163.54C80.418 162.951 83.1103 163.242 85.5057 164.207L93.8014 147.978L102.097 131.749C94.3946 128.646 85.9385 127.978 77.0788 129.54V146.54ZM93.8014 147.978L85.5476 164.224C88.1403 165.259 90.0279 166.818 91.4659 169.015L105.848 157.777L120.23 146.539C115.772 139.728 109.628 134.755 102.055 131.733L93.8014 147.978ZM105.848 157.777L91.492 169.055C92.8227 171.072 93.5282 173.412 93.5282 176.465L110.27 173.513L127.012 170.561C127.012 161.571 124.769 153.42 120.204 146.499L105.848 157.777ZM110.27 173.513L93.5282 176.465C93.5282 179.319 92.855 181.797 91.5116 184.266L105.797 190.612L120.082 196.957C124.703 188.465 127.012 179.544 127.012 170.561L110.27 173.513ZM105.797 190.612L91.4675 184.347C90.0588 186.963 88.1663 189.194 85.4874 191.198L93.6998 204.564L101.912 217.93C109.467 212.28 115.639 205.209 120.127 196.876L105.797 190.612ZM93.6998 204.564L85.5197 191.174C83.0553 193.01 80.3012 194.262 76.9263 194.857V211.857V228.857C85.7503 227.301 94.1786 223.691 101.88 217.954L93.6998 204.564ZM77.1296 192.621V209.621C82.3209 208.706 87.4451 206.541 92.1437 203.009L83.8898 189.674L75.6359 176.339C75.903 176.139 76.2119 175.956 76.5284 175.818C76.8398 175.682 77.0564 175.634 77.1296 175.621V192.621ZM83.8898 189.674L92.1437 203.009C96.7426 199.552 100.509 195.127 103.173 189.962L88.6677 184.032L74.1622 178.102C74.3114 177.812 74.5346 177.463 74.8345 177.109C75.1334 176.756 75.422 176.5 75.6359 176.339L83.8898 189.674ZM88.6677 184.032L103.129 190.048C105.886 184.763 107.188 179.264 107.188 173.902L90.4467 176.854L73.705 179.806C73.705 179.691 73.7202 179.429 73.8115 179.061C73.904 178.687 74.0449 178.326 74.2066 178.016L88.6677 184.032ZM90.4467 176.854L107.188 173.902C107.188 168.552 105.907 163.451 103.067 159.091L88.6677 170.303L74.2689 181.515C74.0669 181.205 73.9096 180.849 73.8115 180.487C73.7153 180.133 73.705 179.882 73.705 179.806L90.4467 176.854ZM88.6677 170.303L103.233 159.353C100.587 155.078 96.8132 151.911 92.1437 150.048L83.8898 166.294L75.6359 182.539C75.3898 182.441 75.0806 182.273 74.771 182.013C74.4614 181.753 74.2415 181.478 74.1021 181.252L88.6677 170.303ZM83.8898 166.294L92.1437 150.048C87.4451 148.173 82.3209 147.816 77.1296 148.731V165.731V182.731C77.0564 182.744 76.8398 182.772 76.5284 182.746C76.2119 182.72 75.903 182.646 75.636 182.539L83.8898 166.294ZM77.1296 165.731V148.731C71.9383 149.646 66.8141 151.811 62.1155 155.343L70.3694 168.678L78.6233 182.013C78.3562 182.213 78.0473 182.396 77.7308 182.534C77.4194 182.67 77.2028 182.718 77.1296 182.731V165.731ZM70.3694 168.678L62.0102 155.422C57.4301 158.91 53.7557 163.323 51.1303 168.356L65.5915 174.372L80.0526 180.388C79.9537 180.577 79.779 180.86 79.5136 181.176C79.2469 181.494 78.9691 181.75 78.7285 181.933L70.3694 168.678ZM65.5915 174.372L51.0859 168.441C48.3432 173.758 47.1216 179.234 47.1216 184.493L63.8633 181.541L80.605 178.589C80.605 178.626 80.5996 178.84 80.5155 179.189C80.4293 179.547 80.2876 179.933 80.097 180.302L65.5915 174.372ZM63.8633 181.541L47.1216 184.493C47.1216 189.764 48.3632 194.749 51.0258 199.05L65.5915 188.101L80.1571 177.151C80.3085 177.396 80.4345 177.687 80.5155 177.994C80.595 178.297 80.605 178.515 80.605 178.589L63.8633 181.541ZM65.5915 188.101L51.1927 199.313C53.8347 203.37 57.4996 206.417 62.0102 208.262L70.3694 192.058L78.7285 175.855C78.937 175.94 79.1942 176.083 79.4502 176.295C79.7057 176.506 79.8827 176.723 79.9903 176.889L65.5915 188.101ZM70.3694 192.058L62.1155 208.304C66.8141 210.179 71.9383 210.537 77.1296 209.621V192.621V175.621C77.2028 175.608 77.4194 175.58 77.7308 175.606C78.0473 175.632 78.3562 175.706 78.6233 175.813L70.3694 192.058ZM124.202 199.186L115.864 215.397L115.922 215.421L115.98 215.444L124.202 199.186ZM112.308 189.463L126.682 178.212L112.308 189.463ZM112.308 156.638L97.9262 150.471L97.9174 150.488L97.9086 150.504L112.308 156.638ZM157.698 136.712L149.403 152.941L149.423 152.949L149.444 152.957L157.698 136.712ZM169.745 146.51L155.363 157.748L155.376 157.768L155.389 157.788L169.745 146.51ZM169.694 179.345L155.408 172.999L155.386 173.04L155.364 173.08L169.694 179.345ZM157.597 193.297L165.777 206.687L165.793 206.675L165.809 206.663L157.597 193.297ZM152.565 172.765L138.103 166.749L138.081 166.792L138.059 166.835L152.565 172.765ZM152.565 159.036L137.999 169.986L138.081 170.118L138.166 170.248L152.565 159.036ZM147.787 155.027L156.041 138.781L147.787 155.027ZM134.266 157.411L126.012 144.076L125.96 144.116L125.907 144.156L134.266 157.411ZM129.488 163.105L115.027 157.089L115.005 157.132L114.983 157.175L129.488 163.105ZM129.488 176.834L114.923 187.784L115.005 187.916L115.089 188.046L129.488 176.834ZM134.266 180.792L125.907 196.995L125.96 197.016L126.012 197.037L134.266 180.792ZM140.823 200.59V183.59C137.55 184.167 134.859 183.892 132.424 182.927L124.202 199.186L115.98 215.444C123.643 218.479 132.033 219.14 140.823 217.59V200.59ZM124.202 199.186L132.54 182.974C129.966 181.926 128.099 180.372 126.682 178.212L112.308 189.463L97.9346 200.714C102.346 207.437 108.408 212.364 115.864 215.397L124.202 199.186ZM112.308 189.463L126.682 178.212C125.358 176.196 124.679 173.904 124.679 170.973L107.937 173.925L91.1951 176.877C91.1951 185.782 93.4296 193.849 97.9346 200.714L112.308 189.463ZM107.937 173.925L124.679 170.973C124.679 167.881 125.387 165.266 126.708 162.771L112.308 156.638L97.9086 150.504C93.4014 159.016 91.1951 167.925 91.1951 176.877L107.937 173.925ZM112.308 156.638L126.69 162.804C128.144 160.069 130.036 157.84 132.599 155.903L124.304 142.6L116.008 129.296C108.473 134.99 102.368 142.119 97.9262 150.471L112.308 156.638ZM124.304 142.6L132.599 155.903C135.009 154.082 137.688 152.853 140.976 152.273V135.273V118.273C132.132 119.832 123.696 123.487 116.008 129.296L124.304 142.6ZM140.976 135.273V152.273C144.315 151.684 147.007 151.975 149.403 152.941L157.698 136.712L165.994 120.483C158.291 117.379 149.835 116.711 140.976 118.273V135.273ZM157.698 136.712L149.444 152.957C152.037 153.992 153.925 155.551 155.363 157.748L169.745 146.51L184.127 135.272C179.668 128.461 173.525 123.488 165.952 120.466L157.698 136.712ZM169.745 146.51L155.389 157.788C156.72 159.805 157.425 162.145 157.425 165.198L174.167 162.246L190.908 159.294C190.908 150.304 188.666 142.154 184.101 135.232L169.745 146.51ZM174.167 162.246L157.425 165.198C157.425 168.052 156.752 170.53 155.408 172.999L169.694 179.345L183.979 185.691C188.6 177.198 190.908 168.277 190.908 159.294L174.167 162.246ZM169.694 179.345L155.364 173.08C153.956 175.697 152.063 177.927 149.384 179.931L157.597 193.297L165.809 206.663C173.364 201.013 179.536 193.942 184.023 185.609L169.694 179.345ZM157.597 193.297L149.417 179.907C146.952 181.743 144.198 182.995 140.823 183.59V200.59V217.59C149.647 216.034 158.075 212.425 165.777 206.687L157.597 193.297ZM141.026 181.354V198.354C146.218 197.439 151.342 195.275 156.041 191.743L147.787 178.408L139.533 165.073C139.8 164.872 140.109 164.689 140.425 164.551C140.737 164.416 140.953 164.367 141.026 164.354V181.354ZM147.787 178.408L156.041 191.743C160.639 188.285 164.406 183.86 167.07 178.696L152.565 172.765L138.059 166.835C138.208 166.546 138.431 166.196 138.731 165.842C139.03 165.489 139.319 165.233 139.533 165.073L147.787 178.408ZM152.565 172.765L167.026 178.781C169.783 173.496 171.085 167.997 171.085 162.635L154.344 165.587L137.602 168.539C137.602 168.424 137.617 168.162 137.708 167.794C137.801 167.42 137.942 167.059 138.103 166.749L152.565 172.765ZM154.344 165.587L171.085 162.635C171.085 157.285 169.803 152.184 166.963 147.824L152.565 159.036L138.166 170.248C137.964 169.938 137.806 169.582 137.708 169.221C137.612 168.867 137.602 168.616 137.602 168.539L154.344 165.587ZM152.565 159.036L167.13 148.087C164.484 143.812 160.71 140.645 156.041 138.781L147.787 155.027L139.533 171.273C139.287 171.175 138.977 171.006 138.668 170.746C138.358 170.486 138.138 170.211 137.999 169.986L152.565 159.036ZM147.787 155.027L156.041 138.781C151.342 136.906 146.218 136.549 141.026 137.464V154.464V171.464C140.953 171.477 140.737 171.505 140.425 171.479C140.109 171.453 139.8 171.379 139.533 171.273L147.787 155.027ZM141.026 154.464V137.464C135.835 138.38 130.711 140.544 126.012 144.076L134.266 157.411L142.52 170.746C142.253 170.947 141.944 171.129 141.628 171.267C141.316 171.403 141.1 171.451 141.026 171.464V154.464ZM134.266 157.411L125.907 144.156C121.327 147.643 117.652 152.056 115.027 157.089L129.488 163.105L143.949 169.121C143.851 169.311 143.676 169.594 143.41 169.91C143.144 170.228 142.866 170.483 142.625 170.666L134.266 157.411ZM129.488 163.105L114.983 157.175C112.24 162.491 111.018 167.967 111.018 173.226L127.76 170.274L144.502 167.322C144.502 167.359 144.496 167.573 144.412 167.923C144.326 168.28 144.184 168.666 143.994 169.035L129.488 163.105ZM127.76 170.274L111.018 173.226C111.018 178.498 112.26 183.482 114.923 187.784L129.488 176.834L144.054 165.885C144.205 166.129 144.331 166.421 144.412 166.728C144.492 167.03 144.502 167.248 144.502 167.322L127.76 170.274ZM129.488 176.834L115.089 188.046C117.732 192.103 121.396 195.151 125.907 196.995L134.266 180.792L142.625 164.588C142.834 164.674 143.091 164.816 143.347 165.028C143.602 165.24 143.78 165.457 143.887 165.622L129.488 176.834ZM134.266 180.792L126.012 197.037C130.711 198.913 135.835 199.27 141.026 198.354V181.354V164.354C141.1 164.342 141.316 164.313 141.628 164.339C141.944 164.366 142.253 164.439 142.52 164.546L134.266 180.792ZM262.512 116.527L253.551 132.467L253.583 132.481L253.614 132.496L262.512 116.527ZM270.492 125.029L255.11 134.453L255.142 134.521L255.174 134.589L270.492 125.029ZM251.279 137.088L238.115 149.912L238.115 149.912L251.279 137.088ZM239.69 137.635L230.787 124.807L230.787 124.807L239.69 137.635ZM236.183 141.969L250.596 148.076L250.638 147.997L250.679 147.918L236.183 141.969ZM234.556 147.159L217.929 148.105L217.815 149.115V150.111L234.556 147.159ZM200.552 144.794L190.991 132.524V132.524L200.552 144.794ZM196.943 149.766L211.976 154.598L212.004 154.535L212.032 154.471L196.943 149.766ZM176.408 192.148L164.57 206.256L176.408 192.148ZM191.301 127.793L182.313 143.72L182.586 143.848L182.865 143.965L191.301 127.793ZM192.318 128.801L177.343 139.044L177.923 140.118L178.674 141.058L192.318 128.801ZM193.944 130.837L180.3 143.094L189.927 155.143L203.539 143.076L193.944 130.837ZM221.798 122.57L214.653 139.204L214.686 139.214L214.719 139.224L221.798 122.57ZM229.473 127.72L215.927 140.098L227.448 154.176L241.312 137.654L229.473 127.72ZM250.364 115.366V132.366C252.367 132.012 253.202 132.304 253.551 132.467L262.512 116.527L271.473 100.587C264.978 97.5527 257.714 97.0697 250.364 98.3656V115.366ZM262.512 116.527L253.614 132.496C253.757 132.562 254.372 132.838 255.11 134.453L270.492 125.029L285.874 115.606C282.885 109.069 278.18 103.677 271.41 100.558L262.512 116.527ZM270.492 125.029L255.174 134.589C255.876 136.083 256.597 138.833 256.597 143.583L273.339 140.631L290.08 137.679C290.08 129.697 288.904 122.046 285.811 115.469L270.492 125.029ZM273.339 140.631L256.597 143.583V176.409L273.339 173.456L290.08 170.504V137.679L273.339 140.631ZM273.339 173.456L256.597 176.409C256.597 174.511 257.076 169.88 260.967 165.243C264.858 160.606 269.335 159.33 271.204 159.001V176.001V193.001C274.496 192.42 280.04 190.595 284.643 185.11C289.246 179.624 290.08 173.848 290.08 170.504L273.339 173.456ZM271.204 176.001V159.001L255.65 161.743V178.743V195.743L271.204 193.001V176.001ZM255.65 178.743V161.743C258.086 161.314 262.318 161.328 265.913 164.345L254.075 178.453L242.236 192.561C246.577 196.204 251.859 196.412 255.65 195.743V178.743ZM254.075 178.453L265.913 164.345C269.508 167.362 270.257 171.527 270.257 174L253.516 176.952L236.774 179.904C236.774 183.753 237.896 188.919 242.236 192.561L254.075 178.453ZM253.516 176.952L270.257 174V141.793L253.516 144.745L236.774 147.697V179.904L253.516 176.952ZM253.516 144.745L270.257 141.793C270.257 136.052 269.028 129.38 264.443 124.264L251.279 137.088L238.115 149.912C236.512 148.124 236.774 146.557 236.774 147.697L253.516 144.745ZM251.279 137.088L264.443 124.264C259.15 118.357 251.63 117.136 244.722 118.354V135.354V152.354C244.337 152.422 243.257 152.547 241.855 152.176C240.365 151.782 239.063 150.97 238.115 149.912L251.279 137.088ZM244.722 135.354V118.354C240.01 119.185 235.182 121.23 230.787 124.807L239.69 137.635L248.593 150.462C247.912 151.016 247.178 151.467 246.446 151.799C245.725 152.126 245.127 152.283 244.722 152.354V135.354ZM239.69 137.635L230.787 124.807C226.965 127.918 223.898 131.744 221.687 136.021L236.183 141.969L250.679 147.918C250.476 148.31 250.19 148.766 249.808 149.239C249.424 149.713 249.007 150.125 248.593 150.462L239.69 137.635ZM236.183 141.969L221.77 135.862C219.696 139.792 218.404 143.925 217.929 148.105L234.556 147.159L251.183 146.214C251.153 146.484 251.09 146.802 250.981 147.148C250.873 147.494 250.737 147.809 250.596 148.076L236.183 141.969ZM234.556 147.159L217.815 150.111V183.247L234.556 180.295L251.298 177.343V144.207L234.556 147.159ZM234.556 180.295L217.815 183.247C217.815 180.774 218.564 176.344 222.159 172.06L233.997 181.993L245.835 191.927C250.176 186.754 251.298 181.192 251.298 177.343L234.556 180.295ZM233.997 181.993L222.159 172.06C225.754 167.776 229.986 166.268 232.422 165.839V182.839V199.839C236.212 199.171 241.495 197.1 245.835 191.927L233.997 181.993ZM232.422 182.839V165.839L216.868 168.582V185.582V202.582L232.422 199.839V182.839ZM216.868 185.582V168.582C218.737 168.252 223.214 167.949 227.105 171.214C230.996 174.479 231.475 178.94 231.475 180.838L214.733 183.79L197.991 186.742C197.991 190.085 198.826 195.568 203.429 199.43C208.031 203.292 213.576 203.162 216.868 202.582V185.582ZM214.733 183.79L231.475 180.838V148.632L214.733 151.584L197.991 154.536V186.742L214.733 183.79ZM214.733 151.584L231.475 148.632C231.475 142.891 230.245 136.219 225.661 131.102L212.497 143.927L199.332 156.751C197.73 154.962 197.991 153.395 197.991 154.536L214.733 151.584ZM212.497 143.927L225.661 131.102C220.368 125.195 212.847 123.974 205.94 125.192V142.192V159.192C205.555 159.26 204.475 159.385 203.073 159.015C201.583 158.621 200.28 157.809 199.332 156.751L212.497 143.927ZM205.94 142.192V125.192C200.743 126.109 195.558 128.493 190.991 132.524L200.552 144.794L210.113 157.064C209.465 157.635 208.713 158.143 207.906 158.533C207.11 158.918 206.426 159.107 205.94 159.192V142.192ZM200.552 144.794L190.991 132.524C186.988 136.058 183.915 140.346 181.855 145.06L196.943 149.766L212.032 154.471C211.871 154.838 211.624 155.296 211.267 155.788C210.908 156.283 210.509 156.714 210.113 157.064L200.552 144.794ZM196.943 149.766L181.91 144.934C179.935 149.375 178.931 153.97 178.931 158.516L195.672 155.564L212.414 152.612C212.414 152.885 212.383 153.223 212.3 153.601C212.218 153.98 212.1 154.319 211.976 154.598L196.943 149.766ZM195.672 155.564L178.931 158.516V190.103L195.672 187.151L212.414 184.199V152.612L195.672 155.564ZM195.672 187.151L178.931 190.103C178.931 187.63 179.68 183.201 183.275 178.916L195.113 188.85L206.951 198.783C211.292 193.61 212.414 188.048 212.414 184.199L195.672 187.151ZM195.113 188.85L183.275 178.916C186.87 174.632 191.102 173.125 193.538 172.695V189.695V206.695C197.328 206.027 202.611 203.956 206.951 198.783L195.113 188.85ZM193.538 189.695V172.695L177.984 175.438V192.438V209.438L193.538 206.695V189.695ZM177.984 192.438V175.438C180.419 175.008 184.651 175.023 188.246 178.04L176.408 192.148L164.57 206.256C168.911 209.898 174.193 210.106 177.984 209.438V192.438ZM176.408 192.148L188.246 178.04C191.841 181.056 192.591 185.222 192.591 187.695L175.849 190.647L159.107 193.599C159.107 197.448 160.23 202.614 164.57 206.256L176.408 192.148ZM175.849 190.647L192.591 187.695V129.32L175.849 132.272L159.107 135.224V193.599L175.849 190.647ZM175.849 132.272L192.591 129.32C192.591 131.341 192.056 136.049 188.078 140.694C184.174 145.252 179.753 146.468 177.984 146.78V129.78V112.78C174.792 113.343 169.303 115.1 164.688 120.488C159.998 125.964 159.107 131.793 159.107 135.224L175.849 132.272ZM177.984 129.78V146.78L189.827 144.692V127.692V110.692L177.984 112.78V129.78ZM189.827 127.692V144.692C188.42 144.94 185.466 145.201 182.313 143.72L191.301 127.793L200.289 111.866C196.391 110.034 192.454 110.228 189.827 110.692V127.692ZM191.301 127.793L182.865 143.965C179.755 142.671 178.113 140.471 177.343 139.044L192.318 128.801L207.292 118.558C205.98 116.125 203.66 113.253 199.737 111.621L191.301 127.793ZM192.318 128.801L178.674 141.058L180.3 143.094L193.944 130.837L207.588 118.579L205.961 116.543L192.318 128.801ZM193.944 130.837L203.539 143.076C205.811 141.062 208.3 139.783 211.531 139.213V122.213V105.213C201.682 106.95 192.446 111.42 184.349 118.597L193.944 130.837ZM211.531 122.213V139.213C213.255 138.909 214.181 139.061 214.653 139.204L221.798 122.57L228.943 105.936C223.384 104.253 217.465 104.167 211.531 105.213V122.213ZM221.798 122.57L214.719 139.224C215.077 139.33 215.45 139.515 215.927 140.098L229.473 127.72L243.02 115.342C239.363 110.874 234.619 107.625 228.878 105.917L221.798 122.57ZM229.473 127.72L241.312 137.654C243.786 134.705 246.457 133.055 250.364 132.366V115.366V98.3656C237.803 100.58 226.547 107.166 217.635 117.787L229.473 127.72ZM311.877 166.661L295.135 169.613C295.135 167.715 295.613 163.085 299.505 158.448C303.396 153.81 307.873 152.535 309.742 152.205V169.205V186.205C313.034 185.625 318.578 183.8 323.181 178.315C327.784 172.829 328.618 167.052 328.618 163.709L311.877 166.661ZM309.742 169.205V152.205L292.612 155.226V172.226V189.226L309.742 186.205V169.205ZM292.612 172.226V155.226C294.482 154.896 298.958 154.593 302.85 157.858C306.741 161.123 307.219 165.585 307.219 167.482L290.478 170.434L273.736 173.386C273.736 176.729 274.57 182.212 279.173 186.074C283.776 189.937 289.32 189.806 292.612 189.226V172.226ZM290.478 170.434L307.219 167.482V152.153L290.478 155.105L273.736 158.057V173.386L290.478 170.434ZM290.478 155.105L307.219 152.153C307.219 154.051 306.741 158.682 302.85 163.319C298.958 167.956 294.482 169.232 292.612 169.561V152.561V135.561C289.32 136.142 283.776 137.967 279.173 143.452C274.57 148.938 273.736 154.714 273.736 158.057L290.478 155.105ZM292.612 152.561V169.561L309.742 166.541V149.541V132.541L292.612 135.561V152.561ZM309.742 149.541V166.541C307.873 166.87 303.396 167.174 299.505 163.909C295.613 160.644 295.135 156.182 295.135 154.284L311.877 151.332L328.618 148.38C328.618 145.037 327.784 139.555 323.181 135.692C318.578 131.83 313.034 131.96 309.742 132.541V149.541ZM311.877 151.332L295.135 154.284V169.613L311.877 166.661L328.618 163.709V148.38L311.877 151.332Z" fill="#57534D" mask="url(#path-2-outside-1_52_22)"/>
<path d="M268.883 34.0691L238.106 62.9503C233.004 67.7376 229.633 74.1186 228.733 80.6894C227.833 87.2602 229.478 93.4826 233.307 97.9877C237.135 102.493 242.834 104.912 249.149 104.712C255.463 104.513 261.877 101.711 266.979 96.9237L303.526 62.6273C307.097 59.2761 309.457 54.8094 310.087 50.2099C310.717 45.6103 309.565 41.2546 306.885 38.101C304.205 34.9474 300.216 33.2542 295.796 33.3939C291.376 33.5336 286.886 35.4947 283.315 38.8459L250.615 69.5321C248.574 71.4471 247.226 73.9995 246.865 76.6278C246.505 79.2561 247.164 81.7451 248.695 83.5471C250.227 85.3492 252.506 86.3167 255.032 86.2369C257.558 86.1571 260.123 85.0364 262.164 83.1215L289.094 57.8505" stroke="#57534D" stroke-width="32" stroke-linecap="round" stroke-linejoin="round"/>
<path d="M268.883 34.0691L238.106 62.9503C233.004 67.7376 229.633 74.1186 228.733 80.6894C227.833 87.2602 229.478 93.4826 233.307 97.9877C237.135 102.493 242.834 104.912 249.149 104.712C255.463 104.513 261.877 101.711 266.979 96.9237L303.526 62.6273C307.097 59.2761 309.457 54.8094 310.087 50.2099C310.717 45.6103 309.565 41.2546 306.885 38.101C304.205 34.9474 300.216 33.2542 295.796 33.3939C291.376 33.5336 286.886 35.4947 283.315 38.8459L250.615 69.5321C248.574 71.4471 247.225 73.9995 246.865 76.6278C246.505 79.2561 247.164 81.7451 248.695 83.5471C250.227 85.3492 252.506 86.3167 255.032 86.2369C257.558 86.1571 260.123 85.0364 262.164 83.1215L289.094 57.8505" stroke="#D6D3D1" stroke-width="10" stroke-linecap="round" stroke-linejoin="round"/>
<g clip-path="url(#clip0_52_22)">
<ellipse cx="141" cy="170" rx="17" ry="17" fill="#1FAF51"/>
<path d="M164.985 139L137.509 166.981L128.644 157.953L121.001 165.742L137.949 183L145.527 175.292L145.592 175.357L173.149 147.311L164.985 139Z" fill="#57534D"/>
</g>
</g>
<defs>
<filter id="filter0_d_52_22" x="0.0169922" y="0.444824" width="387.491" height="248.204" filterUnits="userSpaceOnUse" color-interpolation-filters="sRGB">
<feFlood flood-opacity="0" result="BackgroundImageFix"/>
<feColorMatrix in="SourceAlpha" type="matrix" values="0 0 0 0 0 0 0 0 0 0 0 0 0 0 0 0 0 0 127 0" result="hardAlpha"/>
<feOffset dx="-4" dy="10"/>
<feGaussianBlur stdDeviation="0.95"/>
<feComposite in2="hardAlpha" operator="out"/>
<feColorMatrix type="matrix" values="0 0 0 0 0 0 0 0 0 0 0 0 0 0 0 0 0 0 0.17 0"/>
<feBlend mode="normal" in2="BackgroundImageFix" result="effect1_dropShadow_52_22"/>
<feBlend mode="normal" in="SourceGraphic" in2="effect1_dropShadow_52_22" result="shape"/>
</filter>
<radialGradient id="paint0_radial_52_22" cx="0" cy="0" r="1" gradientUnits="userSpaceOnUse" gradientTransform="translate(261 73.5) rotate(142.036) scale(282.852 654.784)">
<stop offset="0.34604" stop-color="#1FB854"/>
<stop offset="1" stop-color="#209F4C"/>
</radialGradient>
<clipPath id="clip0_52_22">
<rect width="52.15" height="44" fill="white" transform="translate(121 139)"/>
</clipPath>
</defs>
</svg>
